<svg xmlns="http://www.w3.org/2000/svg" xmlns:xlink="http://www.w3.org/1999/xlink" width="1025" height="768" preserveAspectRatio="xMidYMid meet" viewBox="0 0 1025 768" style="-ms-transform: rotate(360deg); -webkit-transform: rotate(360deg); transform: rotate(360deg);"><path d="M960.585 768h-896q-27 0-45.5-19t-18.5-45V576q0-27 18.5-45.5t45.5-18.5h896q27 0 45.5 18.5t18.5 45.5v128q0 27-18.5 45.5t-45.5 18.5zm0-512h-896q-27 0-45.5-19t-18.5-45V64q0-27 18.5-45.5T64.585 0h896q27 0 45.5 18.5t18.5 45.5v128q0 26-18.5 45t-45.5 19z" fill="white"/><rect x="0" y="0" width="1025" height="768" fill="rgba(0, 0, 0, 0)" /></svg>