<svg xmlns="http://www.w3.org/2000/svg" xmlns:xlink="http://www.w3.org/1999/xlink" width="576" height="155" version="1.1" style=""><rect id="backgroundrect" width="100%" height="100%" x="0" y="0" fill="none" stroke="none"/>

<g class="currentLayer" style=""><title>Layer 1</title><g id="surface1" class="">
<path style=" stroke:none;fill-rule:nonzero;fill:rgb(13.729858%,12.159729%,12.548828%);fill-opacity:1;" d="M145.17806153331372,69.964844 L128.20149953331378,69.964844 L128.20149953331378,53.648437 L181.43196753331375,53.648437 L181.43196753331375,69.964844 L164.45540553331375,69.964844 L164.45540553331375,111.32812500000003 L145.17806153331372,111.32812500000003 zM145.17806153331372,69.964844 " id="svg_1"/>
<path style=" stroke:none;fill-rule:nonzero;fill:rgb(13.729858%,12.159729%,12.548828%);fill-opacity:1;" d="M224.69759353331375,82.652344 L224.69759353331375,82.488281 C224.69759353331375,75.64843699999997 219.99837453331378,69.46875000000003 212.58431153331372,69.46875000000003 C205.24837453331378,69.46875000000003 200.63509353331375,75.566406 200.63509353331375,82.324218 L200.63509353331375,82.488281 C200.63509353331375,89.32812500000003 205.33040553331375,95.50781199999997 212.74837453331378,95.50781199999997 C220.08040553331375,95.50781199999997 224.69759353331375,89.410156 224.69759353331375,82.652344 M181.18978053331375,82.652344 L181.18978053331375,82.488281 C181.18978053331375,65.761718 194.94759353331375,52.410156 212.74837453331378,52.410156 C230.54524953331378,52.410156 244.14290553331375,65.597656 244.14290553331375,82.324218 L244.14290553331375,82.488281 C244.14290553331375,99.214844 230.38118653331372,112.566406 212.58431153331372,112.566406 C194.78353053331375,112.566406 181.18978053331375,99.378906 181.18978053331375,82.652344 " id="svg_2"/>
<path style=" stroke:none;fill-rule:nonzero;fill:rgb(13.729858%,12.159729%,12.548828%);fill-opacity:1;" d="M276.2014995333138,81.08593699999997 C280.8108745333138,81.08593699999997 283.6155615333137,79.027344 283.6155615333137,75.48437500000003 L283.6155615333137,75.32031199999997 C283.6155615333137,71.60937500000003 280.72884353331375,69.79687500000003 276.2796245333138,69.79687500000003 L267.87728053331375,69.79687500000003 L267.87728053331375,81.08593699999997 zM248.59603053331375,53.648437 L276.77571753331375,53.648437 C286.99446753331375,53.648437 293.50228053331375,56.20312500000003 297.54134353331375,60.238281 C301.00228053331375,63.699218 302.81478053331375,67.98437500000003 302.81478053331375,73.917968 L302.81478053331375,74.082031 C302.81478053331375,82.488281 298.44759353331375,88.339844 291.4436865333137,91.71875000000003 L304.87728053331375,111.32812500000003 L282.87728053331375,111.32812500000003 L271.9983745333138,94.847656 L267.87728053331375,94.847656 L267.87728053331375,111.32812500000003 L248.59603053331375,111.32812500000003 zM248.59603053331375,53.648437 " id="svg_3"/>
<path style=" stroke:none;fill-rule:nonzero;fill:rgb(13.729858%,12.159729%,12.548828%);fill-opacity:1;" d="M334.2952495333138,81.08593699999997 C338.90853053331375,81.08593699999997 341.7093115333137,79.027344 341.7093115333137,75.48437500000003 L341.7093115333137,75.32031199999997 C341.7093115333137,71.60937500000003 338.8264995333138,69.79687500000003 334.37728053331375,69.79687500000003 L325.9749365333137,69.79687500000003 L325.9749365333137,81.08593699999997 zM306.68978053331375,53.648437 L334.86946753331375,53.648437 C345.0921245333138,53.648437 351.5999365333137,56.20312500000003 355.6389995333138,60.238281 C359.0999365333138,63.699218 360.90853053331375,67.98437500000003 360.90853053331375,73.917968 L360.90853053331375,74.082031 C360.90853053331375,82.488281 356.54134353331375,88.339844 349.5374365333137,91.71875000000003 L362.97103053331375,111.32812500000003 L340.97103053331375,111.32812500000003 L330.0921245333138,94.847656 L325.9749365333137,94.847656 L325.9749365333137,111.32812500000003 L306.68978053331375,111.32812500000003 zM306.68978053331375,53.648437 " id="svg_4"/>
<path style=" stroke:none;fill-rule:nonzero;fill:rgb(13.729858%,12.159729%,12.548828%);fill-opacity:1;" d="M364.78353053331375,53.648437 L413.9788435333138,53.648437 L413.9788435333138,69.46875000000003 L383.73665553331375,69.46875000000003 L383.73665553331375,75.32031199999997 L411.9202495333137,75.32031199999997 L411.9202495333137,89.246094 L383.73665553331375,89.246094 L383.73665553331375,95.50781199999997 L414.3889995333137,95.50781199999997 L414.3889995333137,111.32812500000003 L364.78353053331375,111.32812500000003 zM364.78353053331375,53.648437 " id="svg_5"/>
<path style=" stroke:none;fill-rule:nonzero;fill:rgb(13.729858%,12.159729%,12.548828%);fill-opacity:1;" d="M413.9788435333138,102.675781 L424.28353053331375,90.39843699999997 C430.5413435333138,95.17968699999997 437.7132175333137,97.15625000000003 444.4671245333137,97.15625000000003 C447.9280615333138,97.15625000000003 449.4124365333138,96.25000000000003 449.4124365333138,94.683594 L449.4124365333138,94.519531 C449.4124365333138,92.871094 447.5999365333138,91.964844 441.4202495333137,90.730468 C428.48665553331375,88.089844 417.1155615333138,84.38281199999997 417.1155615333138,72.18750000000003 L417.1155615333138,72.02343699999997 C417.1155615333138,61.066406 425.6819675333137,52.578125 441.5843115333138,52.578125 C452.7093115333138,52.578125 460.9514995333137,55.214844 467.6233745333137,60.488281 L458.2288435333138,73.50781199999997 C452.7913435333138,69.550781 446.28353053331375,67.82031199999997 440.92415553331375,67.82031199999997 C438.0413435333138,67.82031199999997 436.72103053331375,68.808594 436.72103053331375,70.21093699999997 L436.72103053331375,70.37500000000003 C436.72103053331375,71.941406 438.2913435333138,72.92968699999997 444.3850935333138,74.082031 C459.1350935333138,76.800781 469.0218115333138,81.08593699999997 469.0218115333138,92.707031 L469.0218115333138,92.871094 C469.0218115333138,104.98437500000003 459.0530615333138,112.402344 443.5608745333137,112.402344 C431.86165553331375,112.402344 421.31478053331375,109.10156199999997 413.9788435333138,102.675781 " id="svg_6"/>
<path style=" stroke:none;fill-rule:nonzero;fill:rgb(13.729858%,12.159729%,12.548828%);fill-opacity:1;" d="M472.6507175333137,53.648437 L521.8421245333137,53.648437 L521.8421245333137,69.46875000000003 L491.6038435333138,69.46875000000003 L491.6038435333138,75.32031199999997 L519.7874365333138,75.32031199999997 L519.7874365333138,89.246094 L491.6038435333138,89.246094 L491.6038435333138,95.50781199999997 L522.2561865333138,95.50781199999997 L522.2561865333138,111.32812500000003 L472.6507175333137,111.32812500000003 zM472.6507175333137,53.648437 " id="svg_7"/>
<path style=" stroke:none;fill-rule:nonzero;fill:rgb(13.729858%,12.159729%,12.548828%);fill-opacity:1;" d="M526.6272805333138,53.648437 L545.9085305333138,53.648437 L545.9085305333138,94.847656 L573.0179055333138,94.847656 L573.0179055333138,111.32812500000003 L526.6272805333138,111.32812500000003 zM526.6272805333138,53.648437 " id="svg_8"/>
<path style=" stroke:none;fill-rule:nonzero;fill:rgb(88.690186%,17.826843%,25.071716%);fill-opacity:1;" d="M130.82649953331378,10.210937000000001 L154.29134353331375,10.210937000000001 L154.29134353331375,16.375 L137.60774953331378,16.375 L137.60774953331378,22.933594 L152.30696753331375,22.933594 L152.30696753331375,29.097656 L137.60774953331378,29.097656 L137.60774953331378,41.027344 L130.82649953331378,41.027344 zM130.82649953331378,10.210937000000001 " id="svg_9"/>
<path style=" stroke:none;fill-rule:nonzero;fill:rgb(88.690186%,17.826843%,25.071716%);fill-opacity:1;" d="M159.26399953331378,10.210937000000001 L182.45931153331372,10.210937000000001 L182.45931153331372,16.242187 L165.95149953331378,16.242187 L165.95149953331378,22.492187 L180.47884353331375,22.492187 L180.47884353331375,28.523437 L165.95149953331378,28.523437 L165.95149953331378,34.996094 L182.67806153331372,34.996094 L182.67806153331372,41.027344 L159.26399953331378,41.027344 zM159.26399953331378,10.210937000000001 " id="svg_10"/>
<path style=" stroke:none;fill-rule:nonzero;fill:rgb(88.690186%,17.826843%,25.071716%);fill-opacity:1;" d="M201.95931153331372,25.222656 C203.63118653331372,25.222656 204.91243653331372,24.824218000000002 205.81087453331378,24.027344 C206.70540553331375,23.230468000000002 207.15071753331375,22.171875 207.15071753331375,20.84375 L207.15071753331375,20.753906 C207.15071753331375,19.28125 206.68587453331378,18.175781 205.74446753331375,17.4375 C204.80696753331375,16.699218000000002 203.50228053331375,16.332031 201.82649953331378,16.332031 L195.09212453331378,16.332031 L195.09212453331378,25.222656 zM188.31478053331375,10.210937000000001 L202.40071753331375,10.210937000000001 C206.30306153331372,10.210937000000001 209.29524953331378,11.253906 211.37728053331375,13.339844 C213.13899953331378,15.097656 214.02181153331372,17.449218000000002 214.02181153331372,20.378906 L214.02181153331372,20.46875 C214.02181153331372,22.964844 213.40853053331375,24.996094 212.19368653331372,26.566406 C210.97493653331372,28.136718000000002 209.38118653331372,29.289062 207.41634353331375,30.019531 L214.94368653331372,41.027344 L207.02181153331372,41.027344 L200.42024953331378,31.164062 L195.09212453331378,31.164062 L195.09212453331378,41.027344 L188.31478053331375,41.027344 zM188.31478053331375,10.210937000000001 " id="svg_11"/>
<path style=" stroke:none;fill-rule:nonzero;fill:rgb(88.690186%,17.826843%,25.071716%);fill-opacity:1;" d="M233.34212453331378,25.222656 C235.01790553331375,25.222656 236.29915553331375,24.824218000000002 237.19759353331375,24.027344 C238.08821753331375,23.230468000000002 238.53743653331372,22.171875 238.53743653331372,20.84375 L238.53743653331372,20.753906 C238.53743653331372,19.28125 238.06868653331372,18.175781 237.12728053331375,17.4375 C236.18978053331375,16.699218000000002 234.88509353331375,16.332031 233.20931153331372,16.332031 L226.47884353331375,16.332031 L226.47884353331375,25.222656 zM219.69759353331375,10.210937000000001 L233.78353053331375,10.210937000000001 C237.68587453331378,10.210937000000001 240.68196753331375,11.253906 242.76399953331378,13.339844 C244.52571753331375,15.097656 245.40462453331378,17.449218000000002 245.40462453331378,20.378906 L245.40462453331378,20.46875 C245.40462453331378,22.964844 244.79524953331378,24.996094 243.57649953331378,26.566406 C242.36165553331375,28.136718000000002 240.76790553331375,29.289062 238.80306153331372,30.019531 L246.33040553331375,41.027344 L238.40462453331378,41.027344 L231.80306153331372,31.164062 L226.47884353331375,31.164062 L226.47884353331375,41.027344 L219.69759353331375,41.027344 zM219.69759353331375,10.210937000000001 " id="svg_12"/>
<path style=" stroke:none;fill-rule:nonzero;fill:rgb(88.690186%,17.826843%,25.071716%);fill-opacity:1;" d="M251.08040553331375,10.210937000000001 L274.2796245333138,10.210937000000001 L274.2796245333138,16.242187 L257.7718115333137,16.242187 L257.7718115333137,22.492187 L272.29915553331375,22.492187 L272.29915553331375,28.523437 L257.7718115333137,28.523437 L257.7718115333137,34.996094 L274.50228053331375,34.996094 L274.50228053331375,41.027344 L251.08040553331375,41.027344 zM251.08040553331375,10.210937000000001 " id="svg_13"/>
<path style=" stroke:none;fill-rule:nonzero;fill:rgb(88.690186%,17.826843%,25.071716%);fill-opacity:1;" d="M287.3108745333138,16.464844 L277.93196753331375,16.464844 L277.93196753331375,10.214844 L303.46321753331375,10.214844 L303.46321753331375,16.464844 L294.0843115333137,16.464844 L294.0843115333137,41.027344 L287.3108745333138,41.027344 zM287.3108745333138,16.464844 " id="svg_14"/>
<path style=" stroke:none;fill-rule:nonzero;fill:rgb(88.690186%,17.826843%,25.071716%);fill-opacity:1;" d="M308.2171245333138,10.210937000000001 L331.4124365333137,10.210937000000001 L331.4124365333137,16.242187 L314.90853053331375,16.242187 L314.90853053331375,22.492187 L329.4358745333138,22.492187 L329.4358745333138,28.523437 L314.90853053331375,28.523437 L314.90853053331375,34.996094 L331.63509353331375,34.996094 L331.63509353331375,41.027344 L308.2171245333138,41.027344 zM308.2171245333138,10.210937000000001 " id="svg_15"/>
<path style=" stroke:none;fill-rule:nonzero;fill:rgb(88.690186%,17.826843%,25.071716%);fill-opacity:1;" d="M350.9124365333137,25.222656 C352.58821753331375,25.222656 353.86946753331375,24.824218000000002 354.7639995333138,24.027344 C355.65853053331375,23.230468000000002 356.1077495333138,22.171875 356.1077495333138,20.84375 L356.1077495333138,20.753906 C356.1077495333138,19.28125 355.6389995333138,18.175781 354.69759353331375,17.4375 C353.76009353331375,16.699218000000002 352.45540553331375,16.332031 350.7796245333138,16.332031 L344.04915553331375,16.332031 L344.04915553331375,25.222656 zM337.26790553331375,10.210937000000001 L351.35384353331375,10.210937000000001 C355.2561865333137,10.210937000000001 358.25228053331375,11.253906 360.3343115333138,13.339844 C362.09603053331375,15.097656 362.9749365333138,17.449218000000002 362.9749365333138,20.378906 L362.9749365333138,20.46875 C362.9749365333138,22.964844 362.3655615333138,24.996094 361.1468115333138,26.566406 C359.9319675333137,28.136718000000002 358.3382175333137,29.289062 356.36946753331375,30.019531 L363.8968115333138,41.027344 L355.9749365333137,41.027344 L349.3733745333138,31.164062 L344.04915553331375,31.164062 L344.04915553331375,41.027344 L337.26790553331375,41.027344 zM337.26790553331375,10.210937000000001 " id="svg_16"/>
<path style=" stroke:none;fill-rule:nonzero;fill:rgb(88.690186%,17.826843%,25.071716%);fill-opacity:1;" d="M374.5061865333138,5.293955920339377e-23 L380.2718115333138,2.5078120000000013 L374.6389995333137,7.792968000000002 L369.53353053331375,7.792968000000002 zM368.9593115333138,10.210937000000001 L375.73665553331375,10.210937000000001 L375.73665553331375,41.027344 L368.9593115333138,41.027344 zM368.9593115333138,10.210937000000001 " id="svg_17"/>
<path style=" stroke:none;fill-rule:nonzero;fill:rgb(88.690186%,17.826843%,25.071716%);fill-opacity:1;" d="M400.6975935333138,28.171875 L396.6038435333138,18.179687 L392.5100935333138,28.171875 zM393.56478053331375,9.992187000000001 L399.81478053331375,9.992187000000001 L413.0218115333138,41.027344 L405.9358745333137,41.027344 L403.1194675333137,34.113281 L390.0882175333137,34.113281 L387.2718115333138,41.027344 L380.36165553331375,41.027344 zM393.56478053331375,9.992187000000001 " id="svg_18"/>
<path style=" stroke:none;fill-rule:nonzero;fill:rgb(88.690186%,17.826843%,25.071716%);fill-opacity:1;" d="M574.7132175333137,123.519531 L7.420249533313751,123.519531 L7.420249533313751,119.93750000000003 L574.7132175333137,119.93750000000003 zM574.7132175333137,123.519531 " id="svg_19"/>
<path style=" stroke:none;fill-rule:nonzero;fill:rgb(13.729858%,12.159729%,12.548828%);fill-opacity:1;" d="M17.271811533313752,151.378906 L8.596030533313751,151.378906 L8.596030533313751,136.035156 L17.271811533313752,136.035156 L17.271811533313752,138.15625000000003 L11.10384353331375,138.15625000000003 L11.10384353331375,142.332031 L16.88509353331375,142.332031 L16.88509353331375,144.433594 L11.10384353331375,144.433594 L11.10384353331375,149.246094 L17.271811533313752,149.246094 zM17.271811533313752,151.378906 " id="svg_20"/>
<path style=" stroke:none;fill-rule:nonzero;fill:rgb(13.729858%,12.159729%,12.548828%);fill-opacity:1;" d="M24.77962453331375,151.378906 L24.77962453331375,136.035156 L27.287436533313752,136.035156 L27.287436533313752,149.22656199999997 L33.78353053331375,149.22656199999997 L33.78353053331375,151.378906 zM24.77962453331375,151.378906 " id="svg_21"/>
<path style=" stroke:none;fill-rule:nonzero;fill:rgb(13.729858%,12.159729%,12.548828%);fill-opacity:1;" d="M49.29524953331375,151.378906 L40.61556153331375,151.378906 L40.61556153331375,136.035156 L49.29524953331375,136.035156 L49.29524953331375,138.15625000000003 L43.12337453331375,138.15625000000003 L43.12337453331375,142.332031 L48.90462453331375,142.332031 L48.90462453331375,144.433594 L43.12337453331375,144.433594 L43.12337453331375,149.246094 L49.29524953331375,149.246094 zM49.29524953331375,151.378906 " id="svg_22"/>
<path style=" stroke:none;fill-rule:nonzero;fill:rgb(13.729858%,12.159729%,12.548828%);fill-opacity:1;" d="M63.32649953331375,137.96875000000003 C61.88509353331375,137.96875000000003 60.75228053331375,138.47656199999997 59.92806153331375,139.50000000000003 C59.09993653331375,140.519531 58.68978053331375,141.92968699999997 58.68978053331375,143.730468 C58.68978053331375,145.613281 59.08431153331375,147.03125000000003 59.88118653331375,148.00000000000003 C60.67415553331375,148.964844 61.82259353331375,149.449218 63.32649953331375,149.449218 C63.97493653331375,149.449218 64.60774953331375,149.38281199999997 65.21712453331375,149.253906 C65.82649953331375,149.121094 66.45540553331375,148.957031 67.11556153331375,148.753906 L67.11556153331375,150.90625000000003 C65.91243653331375,151.363281 64.54915553331375,151.58593699999997 63.02181153331375,151.58593699999997 C60.77571753331375,151.58593699999997 59.05306153331375,150.90625000000003 57.84993653331375,149.54687500000003 C56.64681153331375,148.18750000000003 56.04524953331375,146.24218699999997 56.04524953331375,143.707031 C56.04524953331375,142.113281 56.33821753331375,140.714844 56.92024953331375,139.519531 C57.50618653331375,138.324218 58.34993653331375,137.410156 59.45540553331375,136.77343699999997 C60.56087453331375,136.136718 61.85774953331375,135.82031199999997 63.34603053331375,135.82031199999997 C64.91634353331375,135.82031199999997 66.36165553331375,136.144531 67.68978053331375,136.800781 L66.79134353331375,138.89062500000003 C66.27181153331375,138.64843699999997 65.72493653331375,138.433594 65.14681153331375,138.246094 C64.56868653331375,138.058594 63.96321753331375,137.96875000000003 63.32649953331375,137.96875000000003 " id="svg_23"/>
<path style=" stroke:none;fill-rule:nonzero;fill:rgb(13.729858%,12.159729%,12.548828%);fill-opacity:1;" d="M79.90853053331375,151.378906 L77.40071753331375,151.378906 L77.40071753331375,138.191406 L72.88899953331375,138.191406 L72.88899953331375,136.035156 L84.42024953331375,136.035156 L84.42024953331375,138.191406 L79.90853053331375,138.191406 zM79.90853053331375,151.378906 " id="svg_24"/>
<path style=" stroke:none;fill-rule:nonzero;fill:rgb(13.729858%,12.159729%,12.548828%);fill-opacity:1;" d="M93.46712453331375,143.17187500000003 L95.20931153331375,143.17187500000003 C96.38118653331375,143.17187500000003 97.22493653331375,142.957031 97.74837453331375,142.52343699999997 C98.27571753331375,142.089844 98.53743653331375,141.44531199999997 98.53743653331375,140.589844 C98.53743653331375,139.722656 98.25228053331375,139.10156199999997 97.68587453331375,138.722656 C97.11946753331375,138.347656 96.26790553331375,138.15625000000003 95.12728053331375,138.15625000000003 L93.46712453331375,138.15625000000003 zM93.46712453331375,145.25000000000003 L93.46712453331375,151.378906 L90.96321753331375,151.378906 L90.96321753331375,136.035156 L95.29524953331375,136.035156 C97.27571753331375,136.035156 98.74056153331375,136.410156 99.69368653331375,137.152344 C100.64290553331375,137.89062500000003 101.11946753331375,139.011718 101.11946753331375,140.50781199999997 C101.11946753331375,142.417968 100.12337453331375,143.777344 98.13899953331375,144.589844 L102.47103053331375,151.378906 L99.61556153331375,151.378906 L95.94759353331375,145.25000000000003 zM93.46712453331375,145.25000000000003 " id="svg_25"/>
<path style=" stroke:none;fill-rule:nonzero;fill:rgb(13.729858%,12.159729%,12.548828%);fill-opacity:1;" d="M108.88509353331375,136.03906199999997 L111.39681153331372,136.03906199999997 L111.39681153331372,151.378906 L108.88509353331375,151.378906 zM108.88509353331375,136.03906199999997 " id="svg_26"/>
<path style=" stroke:none;fill-rule:nonzero;fill:rgb(13.729858%,12.159729%,12.548828%);fill-opacity:1;" d="M126.16243653331372,137.96875000000003 C124.72103053331375,137.96875000000003 123.58821753331375,138.47656199999997 122.76399953331378,139.50000000000003 C121.93587453331378,140.519531 121.52571753331375,141.92968699999997 121.52571753331375,143.730468 C121.52571753331375,145.613281 121.92024953331378,147.03125000000003 122.71712453331378,148.00000000000003 C123.51009353331375,148.964844 124.65853053331375,149.449218 126.16243653331372,149.449218 C126.81087453331378,149.449218 127.44368653331372,149.38281199999997 128.05306153331372,149.253906 C128.65853053331375,149.121094 129.29134353331375,148.957031 129.94759353331375,148.753906 L129.94759353331375,150.90625000000003 C128.74837453331378,151.363281 127.38509353331375,151.58593699999997 125.85774953331378,151.58593699999997 C123.61165553331375,151.58593699999997 121.88899953331378,150.90625000000003 120.68587453331378,149.54687500000003 C119.48274953331378,148.18750000000003 118.88118653331372,146.24218699999997 118.88118653331372,143.707031 C118.88118653331372,142.113281 119.17415553331375,140.714844 119.75618653331372,139.519531 C120.34212453331378,138.324218 121.18587453331378,137.410156 122.29134353331375,136.77343699999997 C123.39681153331372,136.136718 124.69368653331372,135.82031199999997 126.18196753331375,135.82031199999997 C127.75228053331375,135.82031199999997 129.19759353331375,136.144531 130.52571753331375,136.800781 L129.62337453331378,138.89062500000003 C129.10774953331378,138.64843699999997 128.55696753331375,138.433594 127.98274953331378,138.246094 C127.40462453331378,138.058594 126.79915553331375,137.96875000000003 126.16243653331372,137.96875000000003 " id="svg_27"/>
<path style=" stroke:none;fill-rule:nonzero;fill:rgb(13.729858%,12.159729%,12.548828%);fill-opacity:1;" d="M137.44368653331372,136.03906199999997 L139.95540553331375,136.03906199999997 L139.95540553331375,151.378906 L137.44368653331372,151.378906 zM137.44368653331372,136.03906199999997 " id="svg_28"/>
<path style=" stroke:none;fill-rule:nonzero;fill:rgb(13.729858%,12.159729%,12.548828%);fill-opacity:1;" d="M158.02571753331375,143.644531 C158.02571753331375,139.972656 156.30696753331375,138.136718 152.87337453331378,138.136718 L150.70149953331378,138.136718 L150.70149953331378,149.269531 L152.48665553331375,149.269531 C156.17806153331372,149.269531 158.02571753331375,147.394531 158.02571753331375,143.644531 M160.67024953331378,143.558594 C160.67024953331378,146.09375000000003 159.96712453331378,148.027344 158.56087453331378,149.371094 C157.15462453331378,150.707031 155.12728053331375,151.378906 152.48665553331375,151.378906 L148.19368653331372,151.378906 L148.19368653331372,136.03906199999997 L152.93587453331378,136.03906199999997 C155.37728053331375,136.03906199999997 157.27571753331375,136.69531199999997 158.63509353331375,138.00781199999997 C159.99056153331372,139.32812500000003 160.67024953331378,141.175781 160.67024953331378,143.558594 " id="svg_29"/>
<path style=" stroke:none;fill-rule:nonzero;fill:rgb(13.729858%,12.159729%,12.548828%);fill-opacity:1;" d="M175.47884353331375,144.95312500000003 L174.04134353331375,140.78125000000003 C173.93587453331378,140.50000000000003 173.79134353331375,140.058594 173.60774953331378,139.457031 C173.42024953331378,138.855468 173.29134353331375,138.417968 173.22103053331375,138.136718 C173.03353053331375,138.996094 172.75618653331372,139.93750000000003 172.39290553331375,140.957031 L171.01009353331375,144.95312500000003 zM177.67024953331378,151.378906 L176.13899953331378,147.11718699999997 L170.27571753331375,147.11718699999997 L168.77571753331375,151.378906 L166.13118653331372,151.378906 L171.86946753331375,135.97656199999997 L174.59603053331375,135.97656199999997 L180.33821753331375,151.378906 zM177.67024953331378,151.378906 " id="svg_30"/>
<path style=" stroke:none;fill-rule:nonzero;fill:rgb(13.729858%,12.159729%,12.548828%);fill-opacity:1;" d="M196.38509353331375,143.644531 C196.38509353331375,139.972656 194.66634353331375,138.136718 191.23274953331378,138.136718 L189.06087453331378,138.136718 L189.06087453331378,149.269531 L190.84603053331375,149.269531 C194.53743653331372,149.269531 196.38509353331375,147.394531 196.38509353331375,143.644531 M199.02962453331378,143.558594 C199.02962453331378,146.09375000000003 198.32649953331378,148.027344 196.91634353331375,149.371094 C195.51399953331378,150.707031 193.48665553331375,151.378906 190.84603053331375,151.378906 L186.55306153331372,151.378906 L186.55306153331372,136.03906199999997 L191.29524953331378,136.03906199999997 C193.73665553331375,136.03906199999997 195.63509353331375,136.69531199999997 196.99056153331372,138.00781199999997 C198.34993653331372,139.32812500000003 199.02962453331378,141.175781 199.02962453331378,143.558594 " id="svg_31"/>
<path style=" stroke:none;fill-rule:nonzero;fill:rgb(13.729858%,12.159729%,12.548828%);fill-opacity:1;" d="M208.81087453331378,149.121094 C208.47493653331372,150.425781 207.85774953331378,152.10156199999997 206.96321753331375,154.14843699999997 L205.15071753331375,154.14843699999997 C205.63118653331372,152.261718 205.99056153331372,150.503906 206.22884353331375,148.878906 L208.65462453331378,148.878906 zM208.81087453331378,149.121094 " id="svg_32"/>
<path style=" stroke:none;fill-rule:nonzero;fill:rgb(13.729858%,12.159729%,12.548828%);fill-opacity:1;" d="M235.06087453331378,147.21093699999997 C235.06087453331378,148.574218 234.56868653331372,149.64843699999997 233.58040553331375,150.42187500000003 C232.59212453331378,151.199218 231.23274953331378,151.58593699999997 229.49837453331378,151.58593699999997 C227.76399953331378,151.58593699999997 226.34603053331375,151.32031199999997 225.24056153331372,150.78125000000003 L225.24056153331372,148.410156 C225.93978053331375,148.738281 226.68196753331375,148.996094 227.46712453331378,149.18750000000003 C228.25618653331372,149.371094 228.99056153331372,149.46875000000003 229.66634353331375,149.46875000000003 C230.66243653331372,149.46875000000003 231.39290553331375,149.28125000000003 231.86556153331372,148.902344 C232.33821753331375,148.52343699999997 232.57259353331375,148.019531 232.57259353331375,147.378906 C232.57259353331375,146.808594 232.35774953331378,146.32031199999997 231.92415553331375,145.92187500000003 C231.49056153331372,145.52343699999997 230.59212453331378,145.050781 229.23665553331375,144.503906 C227.83821753331375,143.941406 226.84993653331372,143.292968 226.27962453331378,142.566406 C225.70540553331375,141.83593699999997 225.41634353331375,140.96093699999997 225.41634353331375,139.941406 C225.41634353331375,138.660156 225.87337453331378,137.652344 226.78353053331375,136.917968 C227.69368653331372,136.18750000000003 228.91243653331372,135.816406 230.44368653331372,135.816406 C231.91243653331372,135.816406 233.37337453331378,136.136718 234.83040553331375,136.78125000000003 L234.03353053331375,138.82812500000003 C232.66634353331375,138.253906 231.45149953331378,137.96875000000003 230.38118653331372,137.96875000000003 C229.56868653331372,137.96875000000003 228.95540553331375,138.144531 228.53353053331375,138.50000000000003 C228.11556153331372,138.85156199999997 227.90462453331378,139.316406 227.90462453331378,139.902344 C227.90462453331378,140.29687500000003 227.99056153331372,140.636718 228.15462453331378,140.92187500000003 C228.32649953331378,141.20312500000003 228.59993653331372,141.47656199999997 228.98665553331375,141.72656199999997 C229.36946753331375,141.97656199999997 230.06478053331375,142.308594 231.06478053331375,142.71875000000003 C232.18978053331375,143.191406 233.01399953331378,143.628906 233.53743653331372,144.03125000000003 C234.06478053331375,144.441406 234.44759353331375,144.89843699999997 234.69368653331372,145.40625000000003 C234.93978053331375,145.917968 235.06087453331378,146.519531 235.06087453331378,147.21093699999997 " id="svg_33"/>
<path style=" stroke:none;fill-rule:nonzero;fill:rgb(13.729858%,12.159729%,12.548828%);fill-opacity:1;" d="M249.54524953331378,144.95312500000003 L248.10774953331378,140.78125000000003 C248.00228053331375,140.50000000000003 247.85774953331378,140.058594 247.67024953331378,139.457031 C247.48274953331378,138.855468 247.35774953331378,138.417968 247.28743653331372,138.136718 C247.09993653331372,138.996094 246.82259353331375,139.93750000000003 246.45931153331372,140.957031 L245.07259353331375,144.95312500000003 zM251.73665553331375,151.378906 L250.20540553331375,147.11718699999997 L244.33821753331375,147.11718699999997 L242.83821753331375,151.378906 L240.19368653331372,151.378906 L245.93587453331378,135.97656199999997 L248.66243653331372,135.97656199999997 L254.40071753331375,151.378906 zM251.73665553331375,151.378906 " id="svg_34"/>
<path style=" stroke:none;fill-rule:nonzero;fill:rgb(13.729858%,12.159729%,12.548828%);fill-opacity:1;" d="M273.3968115333137,151.378906 L270.3264995333138,151.378906 L262.7796245333138,139.15625000000003 L262.6936865333137,139.15625000000003 L262.7483745333138,139.83593699999997 C262.84603053331375,141.136718 262.89290553331375,142.324218 262.89290553331375,143.402344 L262.89290553331375,151.378906 L260.6155615333137,151.378906 L260.6155615333137,136.035156 L263.65853053331375,136.035156 L271.18196753331375,148.199218 L271.2483745333138,148.199218 C271.2327495333138,148.03906199999997 271.20540553331375,147.45312500000003 271.1624365333137,146.441406 C271.1233745333138,145.433594 271.0999365333137,144.644531 271.0999365333137,144.074218 L271.0999365333137,136.035156 L273.3968115333137,136.035156 zM273.3968115333137,151.378906 " id="svg_35"/>
<path style=" stroke:none;fill-rule:nonzero;fill:rgb(13.729858%,12.159729%,12.548828%);fill-opacity:1;" d="M281.6389995333138,136.03906199999997 L284.1468115333137,136.03906199999997 L284.1468115333137,151.378906 L281.6389995333138,151.378906 zM281.6389995333138,136.03906199999997 " id="svg_36"/>
<path style=" stroke:none;fill-rule:nonzero;fill:rgb(13.729858%,12.159729%,12.548828%);fill-opacity:1;" d="M297.68978053331375,151.378906 L295.1780615333137,151.378906 L295.1780615333137,138.191406 L290.66634353331375,138.191406 L290.66634353331375,136.035156 L302.19759353331375,136.035156 L302.19759353331375,138.191406 L297.68978053331375,138.191406 zM297.68978053331375,151.378906 " id="svg_37"/>
<path style=" stroke:none;fill-rule:nonzero;fill:rgb(13.729858%,12.159729%,12.548828%);fill-opacity:1;" d="M316.06478053331375,144.95312500000003 L314.62728053331375,140.78125000000003 C314.51790553331375,140.50000000000003 314.37728053331375,140.058594 314.18978053331375,139.457031 C314.00228053331375,138.855468 313.87728053331375,138.417968 313.80696753331375,138.136718 C313.61946753331375,138.996094 313.3421245333138,139.93750000000003 312.97884353331375,140.957031 L311.5921245333138,144.95312500000003 zM318.2561865333137,151.378906 L316.7249365333137,147.11718699999997 L310.86165553331375,147.11718699999997 L309.3577495333138,151.378906 L306.71321753331375,151.378906 L312.45540553331375,135.97656199999997 L315.18196753331375,135.97656199999997 L320.9202495333138,151.378906 zM318.2561865333137,151.378906 " id="svg_38"/>
<path style=" stroke:none;fill-rule:nonzero;fill:rgb(13.729858%,12.159729%,12.548828%);fill-opacity:1;" d="M329.64290553331375,143.17187500000003 L331.38509353331375,143.17187500000003 C332.5530615333137,143.17187500000003 333.40071753331375,142.957031 333.92415553331375,142.52343699999997 C334.4514995333138,142.089844 334.71321753331375,141.44531199999997 334.71321753331375,140.589844 C334.71321753331375,139.722656 334.4280615333137,139.10156199999997 333.86165553331375,138.722656 C333.2952495333138,138.347656 332.4436865333137,138.15625000000003 331.29915553331375,138.15625000000003 L329.64290553331375,138.15625000000003 zM329.64290553331375,145.25000000000003 L329.64290553331375,151.378906 L327.13509353331375,151.378906 L327.13509353331375,136.035156 L331.47103053331375,136.035156 C333.4514995333138,136.035156 334.91634353331375,136.410156 335.8655615333137,137.152344 C336.8186865333137,137.89062500000003 337.29134353331375,139.011718 337.29134353331375,140.50781199999997 C337.29134353331375,142.417968 336.29915553331375,143.777344 334.31478053331375,144.589844 L338.6468115333137,151.378906 L335.79134353331375,151.378906 L332.1233745333138,145.25000000000003 zM329.64290553331375,145.25000000000003 " id="svg_39"/>
<path style=" stroke:none;fill-rule:nonzero;fill:rgb(13.729858%,12.159729%,12.548828%);fill-opacity:1;" d="M345.0608745333138,136.03906199999997 L347.5686865333137,136.03906199999997 L347.5686865333137,151.378906 L345.0608745333138,151.378906 zM345.0608745333138,136.03906199999997 " id="svg_40"/>
<path style=" stroke:none;fill-rule:nonzero;fill:rgb(13.729858%,12.159729%,12.548828%);fill-opacity:1;" d="M357.72103053331375,143.68750000000003 C357.72103053331375,145.574218 358.1038435333138,147.00781199999997 358.8655615333138,147.98437500000003 C359.6233745333137,148.96093699999997 360.7561865333138,149.44531199999997 362.25228053331375,149.44531199999997 C363.7405615333138,149.44531199999997 364.8655615333138,148.964844 365.6233745333137,148.00000000000003 C366.3850935333138,147.035156 366.7639995333137,145.59375000000003 366.7639995333137,143.68750000000003 C366.7639995333137,141.80468699999997 366.3889995333137,140.378906 365.6389995333137,139.40625000000003 C364.8850935333138,138.433594 363.7639995333137,137.949218 362.2757175333137,137.949218 C360.7718115333138,137.949218 359.6350935333138,138.433594 358.8655615333138,139.40625000000003 C358.1038435333138,140.378906 357.72103053331375,141.80468699999997 357.72103053331375,143.68750000000003 M369.4319675333137,143.68750000000003 C369.4319675333137,146.183594 368.8069675333137,148.12500000000003 367.5569675333137,149.50781199999997 C366.3069675333137,150.894531 364.5374365333138,151.58593699999997 362.25228053331375,151.58593699999997 C359.93978053331375,151.58593699999997 358.15853053331375,150.89843699999997 356.91634353331375,149.52343699999997 C355.67415553331375,148.152344 355.05696753331375,146.199218 355.05696753331375,143.667968 C355.05696753331375,141.13281199999997 355.6780615333137,139.18750000000003 356.9280615333137,137.832031 C358.17415553331375,136.472656 359.95540553331375,135.79687500000003 362.2757175333137,135.79687500000003 C364.5530615333138,135.79687500000003 366.3186865333138,136.48437500000003 367.5608745333137,137.863281 C368.8069675333137,139.24218699999997 369.4319675333137,141.183594 369.4319675333137,143.68750000000003 " id="svg_41"/>
<path style=" stroke:none;fill-rule:nonzero;fill:rgb(13.729858%,12.159729%,12.548828%);fill-opacity:1;" d="M385.7600935333138,147.21093699999997 C385.7600935333138,148.574218 385.26790553331375,149.64843699999997 384.2796245333137,150.42187500000003 C383.2913435333138,151.199218 381.9319675333137,151.58593699999997 380.1975935333138,151.58593699999997 C378.4632175333137,151.58593699999997 377.0452495333137,151.32031199999997 375.93978053331375,150.78125000000003 L375.93978053331375,148.410156 C376.6389995333137,148.738281 377.3811865333138,148.996094 378.1663435333138,149.18750000000003 C378.95540553331375,149.371094 379.68978053331375,149.46875000000003 380.3655615333138,149.46875000000003 C381.36165553331375,149.46875000000003 382.0921245333137,149.28125000000003 382.56478053331375,148.902344 C383.0374365333138,148.52343699999997 383.2718115333138,148.019531 383.2718115333138,147.378906 C383.2718115333138,146.808594 383.0569675333137,146.32031199999997 382.6194675333137,145.92187500000003 C382.18978053331375,145.52343699999997 381.2913435333138,145.050781 379.93978053331375,144.503906 C378.5374365333138,143.941406 377.54915553331375,143.292968 376.9788435333138,142.566406 C376.4046245333137,141.83593699999997 376.1155615333138,140.96093699999997 376.1155615333138,139.941406 C376.1155615333138,138.660156 376.5725935333138,137.652344 377.4827495333137,136.917968 C378.39290553331375,136.18750000000003 379.61165553331375,135.816406 381.14290553331375,135.816406 C382.61165553331375,135.816406 384.0725935333138,136.136718 385.5296245333137,136.78125000000003 L384.7327495333137,138.82812500000003 C383.3655615333138,138.253906 382.1507175333137,137.96875000000003 381.08040553331375,137.96875000000003 C380.26790553331375,137.96875000000003 379.6546245333137,138.144531 379.2327495333137,138.50000000000003 C378.81478053331375,138.85156199999997 378.6038435333138,139.316406 378.6038435333138,139.902344 C378.6038435333138,140.29687500000003 378.68978053331375,140.636718 378.8577495333137,140.92187500000003 C379.0257175333137,141.20312500000003 379.29915553331375,141.47656199999997 379.6858745333137,141.72656199999997 C380.0686865333138,141.97656199999997 380.7639995333137,142.308594 381.7639995333137,142.71875000000003 C382.8889995333137,143.191406 383.7132175333137,143.628906 384.2405615333138,144.03125000000003 C384.7639995333137,144.441406 385.1468115333138,144.89843699999997 385.39290553331375,145.40625000000003 C385.6389995333137,145.917968 385.7600935333138,146.519531 385.7600935333138,147.21093699999997 " id="svg_42"/>
<path style=" stroke:none;fill-rule:nonzero;fill:rgb(13.729858%,12.159729%,12.548828%);fill-opacity:1;" d="M407.0257175333137,143.035156 L410.65853053331375,136.035156 L413.3850935333138,136.035156 L408.2718115333138,145.42968699999997 L408.2718115333138,151.378906 L405.7561865333138,151.378906 L405.7561865333138,145.51562500000003 L400.6702495333137,136.035156 L403.3968115333138,136.035156 zM407.0257175333137,143.035156 " id="svg_43"/>
<path style=" stroke:none;fill-rule:nonzero;fill:rgb(13.729858%,12.159729%,12.548828%);fill-opacity:1;" d="M431.8811865333138,143.527344 L433.2093115333138,143.527344 C434.4983745333137,143.527344 435.4436865333138,143.30468699999997 436.0452495333137,142.85937500000003 C436.6468115333138,142.410156 436.9475935333138,141.71093699999997 436.9475935333138,140.75781199999997 C436.9475935333138,139.878906 436.6780615333138,139.222656 436.1389995333137,138.785156 C435.6038435333138,138.35156199999997 434.7639995333137,138.136718 433.6194675333137,138.136718 L431.8811865333138,138.136718 zM439.5296245333137,140.675781 C439.5296245333137,142.277344 439.0061865333138,143.50781199999997 437.95540553331375,144.355468 C436.9046245333137,145.21093699999997 435.4124365333138,145.636718 433.4749365333138,145.636718 L431.8811865333138,145.636718 L431.8811865333138,151.378906 L429.3694675333137,151.378906 L429.3694675333137,136.035156 L433.7874365333138,136.035156 C435.70540553331375,136.035156 437.14290553331375,136.42968699999997 438.0999365333138,137.214844 C439.0530615333138,137.996094 439.5296245333137,139.14843699999997 439.5296245333137,140.675781 " id="svg_44"/>
<path style=" stroke:none;fill-rule:nonzero;fill:rgb(13.729858%,12.159729%,12.548828%);fill-opacity:1;" d="M446.78353053331375,136.03906199999997 L449.2913435333138,136.03906199999997 L449.2913435333138,151.378906 L446.78353053331375,151.378906 zM446.78353053331375,136.03906199999997 " id="svg_45"/>
<path style=" stroke:none;fill-rule:nonzero;fill:rgb(13.729858%,12.159729%,12.548828%);fill-opacity:1;" d="M470.3108745333137,151.378906 L467.23665553331375,151.378906 L459.6936865333138,139.15625000000003 L459.61165553331375,139.15625000000003 L459.6624365333138,139.83593699999997 C459.7561865333138,141.136718 459.8069675333137,142.324218 459.8069675333137,143.402344 L459.8069675333137,151.378906 L457.53353053331375,151.378906 L457.53353053331375,136.035156 L460.5764995333137,136.035156 L468.09603053331375,148.199218 L468.1624365333138,148.199218 C468.1468115333138,148.03906199999997 468.1194675333137,147.45312500000003 468.0764995333137,146.441406 C468.0374365333138,145.433594 468.0139995333137,144.644531 468.0139995333137,144.074218 L468.0139995333137,136.035156 L470.3108745333137,136.035156 zM470.3108745333137,151.378906 " id="svg_46"/>
<path style=" stroke:none;fill-rule:nonzero;fill:rgb(13.729858%,12.159729%,12.548828%);fill-opacity:1;" d="M483.8499365333138,151.378906 L481.3421245333137,151.378906 L481.3421245333137,138.191406 L476.83040553331375,138.191406 L476.83040553331375,136.035156 L488.3655615333138,136.035156 L488.3655615333138,138.191406 L483.8499365333138,138.191406 zM483.8499365333138,151.378906 " id="svg_47"/>
<path style=" stroke:none;fill-rule:nonzero;fill:rgb(13.729858%,12.159729%,12.548828%);fill-opacity:1;" d="M506.9280615333138,136.035156 L506.9280615333138,145.964844 C506.9280615333138,147.097656 506.6858745333137,148.089844 506.1975935333138,148.93750000000003 C505.7132175333137,149.78906199999997 505.0100935333138,150.441406 504.0882175333137,150.89843699999997 C503.1702495333137,151.35937500000003 502.0725935333138,151.58593699999997 500.7913435333138,151.58593699999997 C498.8889995333137,151.58593699999997 497.40853053331375,151.082031 496.3538435333138,150.074218 C495.2952495333137,149.07031199999997 494.76790553331375,147.683594 494.76790553331375,145.92187500000003 L494.76790553331375,136.035156 L497.28353053331375,136.035156 L497.28353053331375,145.74218699999997 C497.28353053331375,147.011718 497.58040553331375,147.941406 498.1663435333138,148.542968 C498.75228053331375,149.144531 499.65853053331375,149.44531199999997 500.8733745333137,149.44531199999997 C503.2405615333138,149.44531199999997 504.4202495333137,148.20312500000003 504.4202495333137,145.722656 L504.4202495333137,136.035156 zM506.9280615333138,136.035156 " id="svg_48"/>
<path style=" stroke:none;fill-rule:nonzero;fill:rgb(13.729858%,12.159729%,12.548828%);fill-opacity:1;" d="M517.5491555333138,143.17187500000003 L519.2913435333138,143.17187500000003 C520.4593115333138,143.17187500000003 521.3069675333137,142.957031 521.8304055333138,142.52343699999997 C522.3577495333137,142.089844 522.6155615333138,141.44531199999997 522.6155615333138,140.589844 C522.6155615333138,139.722656 522.3343115333138,139.10156199999997 521.7718115333138,138.722656 C521.2014995333137,138.347656 520.3499365333138,138.15625000000003 519.2093115333138,138.15625000000003 L517.5491555333138,138.15625000000003 zM517.5491555333138,145.25000000000003 L517.5491555333138,151.378906 L515.0413435333138,151.378906 L515.0413435333138,136.035156 L519.3733745333137,136.035156 C521.3577495333137,136.035156 522.8225935333138,136.410156 523.7718115333138,137.152344 C524.7249365333138,137.89062500000003 525.1975935333138,139.011718 525.1975935333138,140.50781199999997 C525.1975935333138,142.417968 524.2054055333138,143.777344 522.2210305333138,144.589844 L526.5530615333138,151.378906 L523.6975935333138,151.378906 L520.0257175333137,145.25000000000003 zM517.5491555333138,145.25000000000003 " id="svg_49"/>
<path style=" stroke:none;fill-rule:nonzero;fill:rgb(13.729858%,12.159729%,12.548828%);fill-opacity:1;" d="M540.2913435333138,144.95312500000003 L538.8538435333138,140.78125000000003 C538.7483745333137,140.50000000000003 538.6038435333138,140.058594 538.4163435333138,139.457031 C538.2327495333137,138.855468 538.1038435333138,138.417968 538.0335305333138,138.136718 C537.8499365333138,138.996094 537.5686865333138,139.93750000000003 537.2054055333138,140.957031 L535.8225935333138,144.95312500000003 zM542.4827495333137,151.378906 L540.9514995333137,147.11718699999997 L535.0882175333137,147.11718699999997 L533.5882175333137,151.378906 L530.9436865333138,151.378906 L536.6858745333137,135.97656199999997 L539.4085305333138,135.97656199999997 L545.1507175333137,151.378906 zM542.4827495333137,151.378906 " id="svg_50"/>
<path style=" stroke:none;fill-rule:nonzero;fill:rgb(13.729858%,12.159729%,12.548828%);fill-opacity:1;" d="M560.2093115333138,147.21093699999997 C560.2093115333138,148.574218 559.7210305333138,149.64843699999997 558.7288435333138,150.42187500000003 C557.7444675333137,151.199218 556.3850935333138,151.58593699999997 554.6468115333138,151.58593699999997 C552.9124365333138,151.58593699999997 551.4944675333137,151.32031199999997 550.3929055333138,150.78125000000003 L550.3929055333138,148.410156 C551.0882175333137,148.738281 551.8304055333138,148.996094 552.6194675333137,149.18750000000003 C553.4046245333137,149.371094 554.1389995333137,149.46875000000003 554.8186865333138,149.46875000000003 C555.8108745333137,149.46875000000003 556.5452495333137,149.28125000000003 557.0179055333138,148.902344 C557.4866555333138,148.52343699999997 557.7249365333138,148.019531 557.7249365333138,147.378906 C557.7249365333138,146.808594 557.5061865333138,146.32031199999997 557.0725935333138,145.92187500000003 C556.6389995333137,145.52343699999997 555.7444675333137,145.050781 554.3889995333137,144.503906 C552.9866555333138,143.941406 552.0022805333138,143.292968 551.4280615333138,142.566406 C550.8538435333138,141.83593699999997 550.5686865333138,140.96093699999997 550.5686865333138,139.941406 C550.5686865333138,138.660156 551.0218115333138,137.652344 551.9319675333137,136.917968 C552.8421245333137,136.18750000000003 554.0608745333137,135.816406 555.5960305333138,135.816406 C557.0647805333138,135.816406 558.5257175333137,136.136718 559.9788435333138,136.78125000000003 L559.1819675333137,138.82812500000003 C557.8186865333138,138.253906 556.6038435333138,137.96875000000003 555.5296245333137,137.96875000000003 C554.7210305333138,137.96875000000003 554.1038435333138,138.144531 553.6858745333137,138.50000000000003 C553.2639995333137,138.85156199999997 553.0569675333137,139.316406 553.0569675333137,139.902344 C553.0569675333137,140.29687500000003 553.1389995333137,140.636718 553.3069675333137,140.92187500000003 C553.4749365333138,141.20312500000003 553.7522805333138,141.47656199999997 554.1350935333138,141.72656199999997 C554.5218115333138,141.97656199999997 555.2132175333137,142.308594 556.2132175333137,142.71875000000003 C557.3421245333137,143.191406 558.1663435333138,143.628906 558.6897805333138,144.03125000000003 C559.2132175333137,144.441406 559.5999365333138,144.89843699999997 559.8460305333138,145.40625000000003 C560.0882175333137,145.917968 560.2093115333138,146.519531 560.2093115333138,147.21093699999997 " id="svg_51"/>
<path style=" stroke:none;fill-rule:nonzero;fill:rgb(13.729858%,12.159729%,12.548828%);fill-opacity:1;" d="M566.7444675333137,150.066406 C566.7444675333137,149.55468699999997 566.8772805333138,149.16406199999997 567.1389995333137,148.89062500000003 C567.4046245333137,148.621094 567.7913435333138,148.480468 568.2952495333137,148.480468 C568.8069675333137,148.480468 569.1936865333138,148.62500000000003 569.4593115333138,148.90625000000003 C569.7249365333138,149.18750000000003 569.8577495333137,149.57812500000003 569.8577495333137,150.066406 C569.8577495333137,150.56250000000003 569.7210305333138,150.96093699999997 569.4554055333138,151.246094 C569.1819675333137,151.53906199999997 568.7991555333138,151.683594 568.2952495333137,151.683594 C567.7913435333138,151.683594 567.4046245333137,151.542968 567.1389995333137,151.253906 C566.8772805333138,150.964844 566.7444675333137,150.57031199999997 566.7444675333137,150.066406 " id="svg_52"/>
<path style=" stroke:none;fill-rule:nonzero;fill:rgb(88.690186%,17.826843%,25.071716%);fill-opacity:1;" d="M123.09212453331378,55.535156 L106.57259353331375,41.828125 L106.57259353331375,19.019531 C106.57259353331375,18.234375 105.93196753331375,17.597656 105.14681153331372,17.597656 L87.89681153331375,17.597656 C87.10774953331375,17.597656 86.47103053331375,18.234375 86.47103053331375,19.019531 L86.47103053331375,25.152344 L62.70931153331375,5.441406000000001 C62.17806153331375,5 61.41634353331375,5 60.88899953331375,5.441406000000001 L0.5139995333137506,55.535156 C0.05306153331375186,55.917968 -0.11881346668624819,56.550781 0.08431153331375187,57.113281 C0.29134353331375,57.67968699999997 0.8225935333137498,58.05468699999997 1.4241555333137512,58.05468699999997 L9.10774953331375,58.05468699999997 L9.10774953331375,111.75781199999997 L11.955405533313751,111.75781199999997 L11.955405533313751,56.63281199999997 C11.955405533313751,55.84375000000003 11.318686533313752,55.207031 10.52962453331375,55.207031 L5.3694675333137525,55.207031 L61.79915553331375,8.386718000000002 L86.98665553331375,29.28125 C87.40853053331375,29.632812 87.99837453331375,29.707031 88.50228053331375,29.472656 C89.00228053331375,29.238281 89.31868653331375,28.738281 89.31868653331375,28.183594 L89.31868653331375,20.445312 L103.72103053331375,20.445312 L103.72103053331375,42.496094 C103.72103053331375,42.917968 103.90853053331375,43.320312 104.23665553331375,43.59375 L118.24056153331372,55.207031 L113.08040553331375,55.207031 C112.29524953331378,55.207031 111.65853053331375,55.84375000000003 111.65853053331375,56.63281199999997 L111.65853053331375,111.75781199999997 L114.50618653331372,111.75781199999997 L114.50618653331372,58.05468699999997 L122.18587453331378,58.05468699999997 C122.78743653331372,58.05468699999997 123.32259353331375,57.67968699999997 123.52571753331375,57.113281 C123.72884353331375,56.550781 123.55696753331375,55.917968 123.09212453331378,55.535156 " id="svg_53"/>
<path style=" stroke:none;fill-rule:nonzero;fill:rgb(88.690186%,17.826843%,25.071716%);fill-opacity:1;" d="M100.87337453331375,22.582031 L92.17024953331375,22.582031 C91.77181153331375,22.582031 91.45540553331375,22.898437 91.45540553331375,23.292968000000002 L91.45540553331375,35.765625 L62.25618653331375,11.539062000000001 C61.99056153331375,11.320312000000001 61.60774953331375,11.320312000000001 61.34212453331375,11.539062000000001 L12.806967533313752,51.808594 C12.580405533313751,52.003906 12.490561533313752,52.316406 12.596030533313751,52.601562 C12.69759353331375,52.882812 12.963217533313752,53.070312 13.26399953331375,53.070312 L14.09212453331375,53.070312 L14.09212453331375,111.75781199999997 L15.51399953331375,111.75781199999997 L15.51399953331375,52.359375 C15.51399953331375,52.085937 15.361655533313751,51.847656 15.13899953331375,51.726562 L61.79915553331375,13.011718000000002 L91.71321753331375,37.828125 C91.92806153331375,38.007812 92.22493653331375,38.042968 92.47103053331375,37.925781 C92.72103053331375,37.808594 92.88118653331375,37.558594 92.88118653331375,37.277344 L92.88118653331375,24.003906 L100.16243653331375,24.003906 L100.16243653331375,44.503906 C100.16243653331375,44.714844 100.25618653331375,44.914062 100.42024953331375,45.050781 L108.47103053331375,51.730468 C108.24446753331375,51.851562 108.09603053331375,52.085937 108.09603053331375,52.359375 L108.09603053331375,111.75781199999997 L109.52181153331372,111.75781199999997 L109.52181153331372,53.070312 L110.34212453331378,53.070312 C110.64290553331375,53.070312 110.91243653331372,52.882812 111.01399953331378,52.601562 C111.11556153331372,52.316406 111.02962453331378,52.003906 110.79915553331375,51.808594 L101.58821753331375,44.167968 L101.58821753331375,23.292968000000002 C101.58821753331375,22.898437 101.26790553331375,22.582031 100.87337453331375,22.582031 " id="svg_54"/>
<path style=" stroke:none;fill-rule:nonzero;fill:rgb(88.690186%,17.826843%,25.071716%);fill-opacity:1;" d="M14.088217533313752,111.75781199999997 L108.82259353331375,111.75781199999997 L108.82259353331375,51.730468 L110.17024953331378,51.730468 L100.81868653331375,44.574218 L100.81868653331375,23.089844 L92.46321753331375,23.089844 L92.46321753331375,36.933594 L61.80696753331375,12.03125 L12.990561533313752,52.128906 L14.787436533313752,52.128906 zM14.088217533313752,111.75781199999997 " id="svg_55"/>
<path style=" stroke:none;fill-rule:nonzero;fill:rgb(100%,100%,100%);fill-opacity:1;" d="M50.43978053331375,87.54687500000003 L50.43978053331375,40.609375 L68.68587453331375,40.609375 L68.68587453331375,51.621094 L73.01790553331375,51.621094 C76.22493653331375,51.621094 78.81087453331375,50.011718 78.81087453331375,50.011718 L78.81087453331375,67.707031 C78.81087453331375,67.707031 76.73665553331375,65.68750000000003 73.05696753331375,65.68750000000003 L68.68587453331375,65.68750000000003 L68.68587453331375,83.527344 C68.68587453331375,86.824218 70.20931153331375,88.03125000000003 73.10384353331375,88.03125000000003 C74.79134353331375,88.03125000000003 76.72103053331375,87.54687500000003 78.65071753331375,86.66406199999997 L78.65071753331375,100.72656199999997 C75.75618653331375,102.25781199999997 71.41634353331375,103.21875000000003 66.99837453331375,103.21875000000003 C56.22493653331375,103.21875000000003 50.43978053331375,98.238281 50.43978053331375,87.54687500000003 " id="svg_56"/>
<path style=" stroke:none;fill-rule:nonzero;fill:rgb(100%,100%,100%);fill-opacity:1;" d="M80.18196753331375,67.652344 L80.13118653331375,49.960937 L82.90853053331375,49.945312 C84.20149953331375,49.945312 85.26399953331375,51.015625 85.26790553331375,52.304687 L85.24446753331375,65.285156 C85.24446753331375,66.582031 84.17415553331375,67.644531 82.86946753331375,67.660156 zM80.18196753331375,67.652344 " id="svg_57"/>
<path style=" stroke:none;fill-rule:nonzero;fill:rgb(100%,100%,100%);fill-opacity:1;" d="M33.24837453331375,60.69531199999997 C32.74446753331375,61.21875000000003 31.89290553331375,62.378906 31.131186533313752,63.45312500000003 C29.744467533313752,65.308594 31.98665553331375,67.84375000000003 33.77962453331375,66.10156199999997 C34.61556153331375,65.261718 34.55306153331375,65.246094 35.01399953331375,64.88281199999997 C38.87337453331375,61.84375000000003 45.24056153331375,62.136718 49.09993653331375,65.519531 L49.09993653331375,51.597656 C41.51009353331375,52.613281 38.01790553331375,55.78125000000003 33.24837453331375,60.69531199999997 " id="svg_58"/>
</g><rect fill="#4a90d6" stroke="#222222" stroke-width="2" stroke-linejoin="round" stroke-dashoffset="" fill-rule="nonzero" id="svg_59" x="537.6116555333138" y="205.535156" width="0" height="1" style="color: rgb(0, 0, 0);" class=""/><rect fill="#4a90d6" stroke="#222222" stroke-width="2" stroke-linejoin="round" stroke-dashoffset="" fill-rule="nonzero" id="svg_63" x="710.6116555333138" y="406.53515600000003" width="0" height="0" style="color: rgb(0, 0, 0);" class=""/></g></svg>