<?xml version="1.0" encoding="UTF-8"?>
<svg xmlns="http://www.w3.org/2000/svg" xmlns:xlink="http://www.w3.org/1999/xlink" width="841.89pt" height="595.28pt" viewBox="0 0 841.89 595.28" version="1.1">
<g id="surface1">
<path style=" stroke:none;fill-rule:nonzero;fill:rgb(13.729858%,12.159729%,12.548828%);fill-opacity:1;" d="M 299.566406 271.429688 L 282.589844 271.429688 L 282.589844 255.113281 L 335.820312 255.113281 L 335.820312 271.429688 L 318.84375 271.429688 L 318.84375 312.792969 L 299.566406 312.792969 Z M 299.566406 271.429688 "/>
<path style=" stroke:none;fill-rule:nonzero;fill:rgb(13.729858%,12.159729%,12.548828%);fill-opacity:1;" d="M 379.085938 284.117188 L 379.085938 283.953125 C 379.085938 277.113281 374.386719 270.933594 366.972656 270.933594 C 359.636719 270.933594 355.023438 277.03125 355.023438 283.789062 L 355.023438 283.953125 C 355.023438 290.792969 359.71875 296.972656 367.136719 296.972656 C 374.46875 296.972656 379.085938 290.875 379.085938 284.117188 M 335.578125 284.117188 L 335.578125 283.953125 C 335.578125 267.226562 349.335938 253.875 367.136719 253.875 C 384.933594 253.875 398.53125 267.0625 398.53125 283.789062 L 398.53125 283.953125 C 398.53125 300.679688 384.769531 314.03125 366.972656 314.03125 C 349.171875 314.03125 335.578125 300.84375 335.578125 284.117188 "/>
<path style=" stroke:none;fill-rule:nonzero;fill:rgb(13.729858%,12.159729%,12.548828%);fill-opacity:1;" d="M 430.589844 282.550781 C 435.199219 282.550781 438.003906 280.492188 438.003906 276.949219 L 438.003906 276.785156 C 438.003906 273.074219 435.117188 271.261719 430.667969 271.261719 L 422.265625 271.261719 L 422.265625 282.550781 Z M 402.984375 255.113281 L 431.164062 255.113281 C 441.382812 255.113281 447.890625 257.667969 451.929688 261.703125 C 455.390625 265.164062 457.203125 269.449219 457.203125 275.382812 L 457.203125 275.546875 C 457.203125 283.953125 452.835938 289.804688 445.832031 293.183594 L 459.265625 312.792969 L 437.265625 312.792969 L 426.386719 296.3125 L 422.265625 296.3125 L 422.265625 312.792969 L 402.984375 312.792969 Z M 402.984375 255.113281 "/>
<path style=" stroke:none;fill-rule:nonzero;fill:rgb(13.729858%,12.159729%,12.548828%);fill-opacity:1;" d="M 488.683594 282.550781 C 493.296875 282.550781 496.097656 280.492188 496.097656 276.949219 L 496.097656 276.785156 C 496.097656 273.074219 493.214844 271.261719 488.765625 271.261719 L 480.363281 271.261719 L 480.363281 282.550781 Z M 461.078125 255.113281 L 489.257812 255.113281 C 499.480469 255.113281 505.988281 257.667969 510.027344 261.703125 C 513.488281 265.164062 515.296875 269.449219 515.296875 275.382812 L 515.296875 275.546875 C 515.296875 283.953125 510.929688 289.804688 503.925781 293.183594 L 517.359375 312.792969 L 495.359375 312.792969 L 484.480469 296.3125 L 480.363281 296.3125 L 480.363281 312.792969 L 461.078125 312.792969 Z M 461.078125 255.113281 "/>
<path style=" stroke:none;fill-rule:nonzero;fill:rgb(13.729858%,12.159729%,12.548828%);fill-opacity:1;" d="M 519.171875 255.113281 L 568.367188 255.113281 L 568.367188 270.933594 L 538.125 270.933594 L 538.125 276.785156 L 566.308594 276.785156 L 566.308594 290.710938 L 538.125 290.710938 L 538.125 296.972656 L 568.777344 296.972656 L 568.777344 312.792969 L 519.171875 312.792969 Z M 519.171875 255.113281 "/>
<path style=" stroke:none;fill-rule:nonzero;fill:rgb(13.729858%,12.159729%,12.548828%);fill-opacity:1;" d="M 568.367188 304.140625 L 578.671875 291.863281 C 584.929688 296.644531 592.101562 298.621094 598.855469 298.621094 C 602.316406 298.621094 603.800781 297.714844 603.800781 296.148438 L 603.800781 295.984375 C 603.800781 294.335938 601.988281 293.429688 595.808594 292.195312 C 582.875 289.554688 571.503906 285.847656 571.503906 273.652344 L 571.503906 273.488281 C 571.503906 262.53125 580.070312 254.042969 595.972656 254.042969 C 607.097656 254.042969 615.339844 256.679688 622.011719 261.953125 L 612.617188 274.972656 C 607.179688 271.015625 600.671875 269.285156 595.3125 269.285156 C 592.429688 269.285156 591.109375 270.273438 591.109375 271.675781 L 591.109375 271.839844 C 591.109375 273.40625 592.679688 274.394531 598.773438 275.546875 C 613.523438 278.265625 623.410156 282.550781 623.410156 294.171875 L 623.410156 294.335938 C 623.410156 306.449219 613.441406 313.867188 597.949219 313.867188 C 586.25 313.867188 575.703125 310.566406 568.367188 304.140625 "/>
<path style=" stroke:none;fill-rule:nonzero;fill:rgb(13.729858%,12.159729%,12.548828%);fill-opacity:1;" d="M 627.039062 255.113281 L 676.230469 255.113281 L 676.230469 270.933594 L 645.992188 270.933594 L 645.992188 276.785156 L 674.175781 276.785156 L 674.175781 290.710938 L 645.992188 290.710938 L 645.992188 296.972656 L 676.644531 296.972656 L 676.644531 312.792969 L 627.039062 312.792969 Z M 627.039062 255.113281 "/>
<path style=" stroke:none;fill-rule:nonzero;fill:rgb(13.729858%,12.159729%,12.548828%);fill-opacity:1;" d="M 681.015625 255.113281 L 700.296875 255.113281 L 700.296875 296.3125 L 727.40625 296.3125 L 727.40625 312.792969 L 681.015625 312.792969 Z M 681.015625 255.113281 "/>
<path style=" stroke:none;fill-rule:nonzero;fill:rgb(88.690186%,17.826843%,25.071716%);fill-opacity:1;" d="M 285.214844 211.675781 L 308.679688 211.675781 L 308.679688 217.839844 L 291.996094 217.839844 L 291.996094 224.398438 L 306.695312 224.398438 L 306.695312 230.5625 L 291.996094 230.5625 L 291.996094 242.492188 L 285.214844 242.492188 Z M 285.214844 211.675781 "/>
<path style=" stroke:none;fill-rule:nonzero;fill:rgb(88.690186%,17.826843%,25.071716%);fill-opacity:1;" d="M 313.652344 211.675781 L 336.847656 211.675781 L 336.847656 217.707031 L 320.339844 217.707031 L 320.339844 223.957031 L 334.867188 223.957031 L 334.867188 229.988281 L 320.339844 229.988281 L 320.339844 236.460938 L 337.066406 236.460938 L 337.066406 242.492188 L 313.652344 242.492188 Z M 313.652344 211.675781 "/>
<path style=" stroke:none;fill-rule:nonzero;fill:rgb(88.690186%,17.826843%,25.071716%);fill-opacity:1;" d="M 356.347656 226.6875 C 358.019531 226.6875 359.300781 226.289062 360.199219 225.492188 C 361.09375 224.695312 361.539062 223.636719 361.539062 222.308594 L 361.539062 222.21875 C 361.539062 220.746094 361.074219 219.640625 360.132812 218.902344 C 359.195312 218.164062 357.890625 217.796875 356.214844 217.796875 L 349.480469 217.796875 L 349.480469 226.6875 Z M 342.703125 211.675781 L 356.789062 211.675781 C 360.691406 211.675781 363.683594 212.71875 365.765625 214.804688 C 367.527344 216.5625 368.410156 218.914062 368.410156 221.84375 L 368.410156 221.933594 C 368.410156 224.429688 367.796875 226.460938 366.582031 228.03125 C 365.363281 229.601562 363.769531 230.753906 361.804688 231.484375 L 369.332031 242.492188 L 361.410156 242.492188 L 354.808594 232.628906 L 349.480469 232.628906 L 349.480469 242.492188 L 342.703125 242.492188 Z M 342.703125 211.675781 "/>
<path style=" stroke:none;fill-rule:nonzero;fill:rgb(88.690186%,17.826843%,25.071716%);fill-opacity:1;" d="M 387.730469 226.6875 C 389.40625 226.6875 390.6875 226.289062 391.585938 225.492188 C 392.476562 224.695312 392.925781 223.636719 392.925781 222.308594 L 392.925781 222.21875 C 392.925781 220.746094 392.457031 219.640625 391.515625 218.902344 C 390.578125 218.164062 389.273438 217.796875 387.597656 217.796875 L 380.867188 217.796875 L 380.867188 226.6875 Z M 374.085938 211.675781 L 388.171875 211.675781 C 392.074219 211.675781 395.070312 212.71875 397.152344 214.804688 C 398.914062 216.5625 399.792969 218.914062 399.792969 221.84375 L 399.792969 221.933594 C 399.792969 224.429688 399.183594 226.460938 397.964844 228.03125 C 396.75 229.601562 395.15625 230.753906 393.191406 231.484375 L 400.71875 242.492188 L 392.792969 242.492188 L 386.191406 232.628906 L 380.867188 232.628906 L 380.867188 242.492188 L 374.085938 242.492188 Z M 374.085938 211.675781 "/>
<path style=" stroke:none;fill-rule:nonzero;fill:rgb(88.690186%,17.826843%,25.071716%);fill-opacity:1;" d="M 405.46875 211.675781 L 428.667969 211.675781 L 428.667969 217.707031 L 412.160156 217.707031 L 412.160156 223.957031 L 426.6875 223.957031 L 426.6875 229.988281 L 412.160156 229.988281 L 412.160156 236.460938 L 428.890625 236.460938 L 428.890625 242.492188 L 405.46875 242.492188 Z M 405.46875 211.675781 "/>
<path style=" stroke:none;fill-rule:nonzero;fill:rgb(88.690186%,17.826843%,25.071716%);fill-opacity:1;" d="M 441.699219 217.929688 L 432.320312 217.929688 L 432.320312 211.679688 L 457.851562 211.679688 L 457.851562 217.929688 L 448.472656 217.929688 L 448.472656 242.492188 L 441.699219 242.492188 Z M 441.699219 217.929688 "/>
<path style=" stroke:none;fill-rule:nonzero;fill:rgb(88.690186%,17.826843%,25.071716%);fill-opacity:1;" d="M 462.605469 211.675781 L 485.800781 211.675781 L 485.800781 217.707031 L 469.296875 217.707031 L 469.296875 223.957031 L 483.824219 223.957031 L 483.824219 229.988281 L 469.296875 229.988281 L 469.296875 236.460938 L 486.023438 236.460938 L 486.023438 242.492188 L 462.605469 242.492188 Z M 462.605469 211.675781 "/>
<path style=" stroke:none;fill-rule:nonzero;fill:rgb(88.690186%,17.826843%,25.071716%);fill-opacity:1;" d="M 505.300781 226.6875 C 506.976562 226.6875 508.257812 226.289062 509.152344 225.492188 C 510.046875 224.695312 510.496094 223.636719 510.496094 222.308594 L 510.496094 222.21875 C 510.496094 220.746094 510.027344 219.640625 509.085938 218.902344 C 508.148438 218.164062 506.84375 217.796875 505.167969 217.796875 L 498.4375 217.796875 L 498.4375 226.6875 Z M 491.65625 211.675781 L 505.742188 211.675781 C 509.644531 211.675781 512.640625 212.71875 514.722656 214.804688 C 516.484375 216.5625 517.363281 218.914062 517.363281 221.84375 L 517.363281 221.933594 C 517.363281 224.429688 516.753906 226.460938 515.535156 228.03125 C 514.320312 229.601562 512.726562 230.753906 510.757812 231.484375 L 518.285156 242.492188 L 510.363281 242.492188 L 503.761719 232.628906 L 498.4375 232.628906 L 498.4375 242.492188 L 491.65625 242.492188 Z M 491.65625 211.675781 "/>
<path style=" stroke:none;fill-rule:nonzero;fill:rgb(88.690186%,17.826843%,25.071716%);fill-opacity:1;" d="M 528.894531 201.464844 L 534.660156 203.972656 L 529.027344 209.257812 L 523.921875 209.257812 Z M 523.347656 211.675781 L 530.125 211.675781 L 530.125 242.492188 L 523.347656 242.492188 Z M 523.347656 211.675781 "/>
<path style=" stroke:none;fill-rule:nonzero;fill:rgb(88.690186%,17.826843%,25.071716%);fill-opacity:1;" d="M 555.085938 229.636719 L 550.992188 219.644531 L 546.898438 229.636719 Z M 547.953125 211.457031 L 554.203125 211.457031 L 567.410156 242.492188 L 560.324219 242.492188 L 557.507812 235.578125 L 544.476562 235.578125 L 541.660156 242.492188 L 534.75 242.492188 Z M 547.953125 211.457031 "/>
<path style=" stroke:none;fill-rule:nonzero;fill:rgb(88.690186%,17.826843%,25.071716%);fill-opacity:1;" d="M 729.101562 324.984375 L 161.808594 324.984375 L 161.808594 321.402344 L 729.101562 321.402344 Z M 729.101562 324.984375 "/>
<path style=" stroke:none;fill-rule:nonzero;fill:rgb(13.729858%,12.159729%,12.548828%);fill-opacity:1;" d="M 171.660156 352.84375 L 162.984375 352.84375 L 162.984375 337.5 L 171.660156 337.5 L 171.660156 339.621094 L 165.492188 339.621094 L 165.492188 343.796875 L 171.273438 343.796875 L 171.273438 345.898438 L 165.492188 345.898438 L 165.492188 350.710938 L 171.660156 350.710938 Z M 171.660156 352.84375 "/>
<path style=" stroke:none;fill-rule:nonzero;fill:rgb(13.729858%,12.159729%,12.548828%);fill-opacity:1;" d="M 179.167969 352.84375 L 179.167969 337.5 L 181.675781 337.5 L 181.675781 350.691406 L 188.171875 350.691406 L 188.171875 352.84375 Z M 179.167969 352.84375 "/>
<path style=" stroke:none;fill-rule:nonzero;fill:rgb(13.729858%,12.159729%,12.548828%);fill-opacity:1;" d="M 203.683594 352.84375 L 195.003906 352.84375 L 195.003906 337.5 L 203.683594 337.5 L 203.683594 339.621094 L 197.511719 339.621094 L 197.511719 343.796875 L 203.292969 343.796875 L 203.292969 345.898438 L 197.511719 345.898438 L 197.511719 350.710938 L 203.683594 350.710938 Z M 203.683594 352.84375 "/>
<path style=" stroke:none;fill-rule:nonzero;fill:rgb(13.729858%,12.159729%,12.548828%);fill-opacity:1;" d="M 217.714844 339.433594 C 216.273438 339.433594 215.140625 339.941406 214.316406 340.964844 C 213.488281 341.984375 213.078125 343.394531 213.078125 345.195312 C 213.078125 347.078125 213.472656 348.496094 214.269531 349.464844 C 215.0625 350.429688 216.210938 350.914062 217.714844 350.914062 C 218.363281 350.914062 218.996094 350.847656 219.605469 350.71875 C 220.214844 350.585938 220.84375 350.421875 221.503906 350.21875 L 221.503906 352.371094 C 220.300781 352.828125 218.9375 353.050781 217.410156 353.050781 C 215.164062 353.050781 213.441406 352.371094 212.238281 351.011719 C 211.035156 349.652344 210.433594 347.707031 210.433594 345.171875 C 210.433594 343.578125 210.726562 342.179688 211.308594 340.984375 C 211.894531 339.789062 212.738281 338.875 213.84375 338.238281 C 214.949219 337.601562 216.246094 337.285156 217.734375 337.285156 C 219.304688 337.285156 220.75 337.609375 222.078125 338.265625 L 221.179688 340.355469 C 220.660156 340.113281 220.113281 339.898438 219.535156 339.710938 C 218.957031 339.523438 218.351562 339.433594 217.714844 339.433594 "/>
<path style=" stroke:none;fill-rule:nonzero;fill:rgb(13.729858%,12.159729%,12.548828%);fill-opacity:1;" d="M 234.296875 352.84375 L 231.789062 352.84375 L 231.789062 339.65625 L 227.277344 339.65625 L 227.277344 337.5 L 238.808594 337.5 L 238.808594 339.65625 L 234.296875 339.65625 Z M 234.296875 352.84375 "/>
<path style=" stroke:none;fill-rule:nonzero;fill:rgb(13.729858%,12.159729%,12.548828%);fill-opacity:1;" d="M 247.855469 344.636719 L 249.597656 344.636719 C 250.769531 344.636719 251.613281 344.421875 252.136719 343.988281 C 252.664062 343.554688 252.925781 342.910156 252.925781 342.054688 C 252.925781 341.1875 252.640625 340.566406 252.074219 340.1875 C 251.507812 339.8125 250.65625 339.621094 249.515625 339.621094 L 247.855469 339.621094 Z M 247.855469 346.714844 L 247.855469 352.84375 L 245.351562 352.84375 L 245.351562 337.5 L 249.683594 337.5 C 251.664062 337.5 253.128906 337.875 254.082031 338.617188 C 255.03125 339.355469 255.507812 340.476562 255.507812 341.972656 C 255.507812 343.882812 254.511719 345.242188 252.527344 346.054688 L 256.859375 352.84375 L 254.003906 352.84375 L 250.335938 346.714844 Z M 247.855469 346.714844 "/>
<path style=" stroke:none;fill-rule:nonzero;fill:rgb(13.729858%,12.159729%,12.548828%);fill-opacity:1;" d="M 263.273438 337.503906 L 265.785156 337.503906 L 265.785156 352.84375 L 263.273438 352.84375 Z M 263.273438 337.503906 "/>
<path style=" stroke:none;fill-rule:nonzero;fill:rgb(13.729858%,12.159729%,12.548828%);fill-opacity:1;" d="M 280.550781 339.433594 C 279.109375 339.433594 277.976562 339.941406 277.152344 340.964844 C 276.324219 341.984375 275.914062 343.394531 275.914062 345.195312 C 275.914062 347.078125 276.308594 348.496094 277.105469 349.464844 C 277.898438 350.429688 279.046875 350.914062 280.550781 350.914062 C 281.199219 350.914062 281.832031 350.847656 282.441406 350.71875 C 283.046875 350.585938 283.679688 350.421875 284.335938 350.21875 L 284.335938 352.371094 C 283.136719 352.828125 281.773438 353.050781 280.246094 353.050781 C 278 353.050781 276.277344 352.371094 275.074219 351.011719 C 273.871094 349.652344 273.269531 347.707031 273.269531 345.171875 C 273.269531 343.578125 273.5625 342.179688 274.144531 340.984375 C 274.730469 339.789062 275.574219 338.875 276.679688 338.238281 C 277.785156 337.601562 279.082031 337.285156 280.570312 337.285156 C 282.140625 337.285156 283.585938 337.609375 284.914062 338.265625 L 284.011719 340.355469 C 283.496094 340.113281 282.945312 339.898438 282.371094 339.710938 C 281.792969 339.523438 281.1875 339.433594 280.550781 339.433594 "/>
<path style=" stroke:none;fill-rule:nonzero;fill:rgb(13.729858%,12.159729%,12.548828%);fill-opacity:1;" d="M 291.832031 337.503906 L 294.34375 337.503906 L 294.34375 352.84375 L 291.832031 352.84375 Z M 291.832031 337.503906 "/>
<path style=" stroke:none;fill-rule:nonzero;fill:rgb(13.729858%,12.159729%,12.548828%);fill-opacity:1;" d="M 312.414062 345.109375 C 312.414062 341.4375 310.695312 339.601562 307.261719 339.601562 L 305.089844 339.601562 L 305.089844 350.734375 L 306.875 350.734375 C 310.566406 350.734375 312.414062 348.859375 312.414062 345.109375 M 315.058594 345.023438 C 315.058594 347.558594 314.355469 349.492188 312.949219 350.835938 C 311.542969 352.171875 309.515625 352.84375 306.875 352.84375 L 302.582031 352.84375 L 302.582031 337.503906 L 307.324219 337.503906 C 309.765625 337.503906 311.664062 338.160156 313.023438 339.472656 C 314.378906 340.792969 315.058594 342.640625 315.058594 345.023438 "/>
<path style=" stroke:none;fill-rule:nonzero;fill:rgb(13.729858%,12.159729%,12.548828%);fill-opacity:1;" d="M 329.867188 346.417969 L 328.429688 342.246094 C 328.324219 341.964844 328.179688 341.523438 327.996094 340.921875 C 327.808594 340.320312 327.679688 339.882812 327.609375 339.601562 C 327.421875 340.460938 327.144531 341.402344 326.78125 342.421875 L 325.398438 346.417969 Z M 332.058594 352.84375 L 330.527344 348.582031 L 324.664062 348.582031 L 323.164062 352.84375 L 320.519531 352.84375 L 326.257812 337.441406 L 328.984375 337.441406 L 334.726562 352.84375 Z M 332.058594 352.84375 "/>
<path style=" stroke:none;fill-rule:nonzero;fill:rgb(13.729858%,12.159729%,12.548828%);fill-opacity:1;" d="M 350.773438 345.109375 C 350.773438 341.4375 349.054688 339.601562 345.621094 339.601562 L 343.449219 339.601562 L 343.449219 350.734375 L 345.234375 350.734375 C 348.925781 350.734375 350.773438 348.859375 350.773438 345.109375 M 353.417969 345.023438 C 353.417969 347.558594 352.714844 349.492188 351.304688 350.835938 C 349.902344 352.171875 347.875 352.84375 345.234375 352.84375 L 340.941406 352.84375 L 340.941406 337.503906 L 345.683594 337.503906 C 348.125 337.503906 350.023438 338.160156 351.378906 339.472656 C 352.738281 340.792969 353.417969 342.640625 353.417969 345.023438 "/>
<path style=" stroke:none;fill-rule:nonzero;fill:rgb(13.729858%,12.159729%,12.548828%);fill-opacity:1;" d="M 363.199219 350.585938 C 362.863281 351.890625 362.246094 353.566406 361.351562 355.613281 L 359.539062 355.613281 C 360.019531 353.726562 360.378906 351.96875 360.617188 350.34375 L 363.042969 350.34375 Z M 363.199219 350.585938 "/>
<path style=" stroke:none;fill-rule:nonzero;fill:rgb(13.729858%,12.159729%,12.548828%);fill-opacity:1;" d="M 389.449219 348.675781 C 389.449219 350.039062 388.957031 351.113281 387.96875 351.886719 C 386.980469 352.664062 385.621094 353.050781 383.886719 353.050781 C 382.152344 353.050781 380.734375 352.785156 379.628906 352.246094 L 379.628906 349.875 C 380.328125 350.203125 381.070312 350.460938 381.855469 350.652344 C 382.644531 350.835938 383.378906 350.933594 384.054688 350.933594 C 385.050781 350.933594 385.78125 350.746094 386.253906 350.367188 C 386.726562 349.988281 386.960938 349.484375 386.960938 348.84375 C 386.960938 348.273438 386.746094 347.785156 386.3125 347.386719 C 385.878906 346.988281 384.980469 346.515625 383.625 345.96875 C 382.226562 345.40625 381.238281 344.757812 380.667969 344.03125 C 380.09375 343.300781 379.804688 342.425781 379.804688 341.40625 C 379.804688 340.125 380.261719 339.117188 381.171875 338.382812 C 382.082031 337.652344 383.300781 337.28125 384.832031 337.28125 C 386.300781 337.28125 387.761719 337.601562 389.21875 338.246094 L 388.421875 340.292969 C 387.054688 339.71875 385.839844 339.433594 384.769531 339.433594 C 383.957031 339.433594 383.34375 339.609375 382.921875 339.964844 C 382.503906 340.316406 382.292969 340.78125 382.292969 341.367188 C 382.292969 341.761719 382.378906 342.101562 382.542969 342.386719 C 382.714844 342.667969 382.988281 342.941406 383.375 343.191406 C 383.757812 343.441406 384.453125 343.773438 385.453125 344.183594 C 386.578125 344.65625 387.402344 345.09375 387.925781 345.496094 C 388.453125 345.90625 388.835938 346.363281 389.082031 346.871094 C 389.328125 347.382812 389.449219 347.984375 389.449219 348.675781 "/>
<path style=" stroke:none;fill-rule:nonzero;fill:rgb(13.729858%,12.159729%,12.548828%);fill-opacity:1;" d="M 403.933594 346.417969 L 402.496094 342.246094 C 402.390625 341.964844 402.246094 341.523438 402.058594 340.921875 C 401.871094 340.320312 401.746094 339.882812 401.675781 339.601562 C 401.488281 340.460938 401.210938 341.402344 400.847656 342.421875 L 399.460938 346.417969 Z M 406.125 352.84375 L 404.59375 348.582031 L 398.726562 348.582031 L 397.226562 352.84375 L 394.582031 352.84375 L 400.324219 337.441406 L 403.050781 337.441406 L 408.789062 352.84375 Z M 406.125 352.84375 "/>
<path style=" stroke:none;fill-rule:nonzero;fill:rgb(13.729858%,12.159729%,12.548828%);fill-opacity:1;" d="M 427.785156 352.84375 L 424.714844 352.84375 L 417.167969 340.621094 L 417.082031 340.621094 L 417.136719 341.300781 C 417.234375 342.601562 417.28125 343.789062 417.28125 344.867188 L 417.28125 352.84375 L 415.003906 352.84375 L 415.003906 337.5 L 418.046875 337.5 L 425.570312 349.664062 L 425.636719 349.664062 C 425.621094 349.503906 425.59375 348.917969 425.550781 347.90625 C 425.511719 346.898438 425.488281 346.109375 425.488281 345.539062 L 425.488281 337.5 L 427.785156 337.5 Z M 427.785156 352.84375 "/>
<path style=" stroke:none;fill-rule:nonzero;fill:rgb(13.729858%,12.159729%,12.548828%);fill-opacity:1;" d="M 436.027344 337.503906 L 438.535156 337.503906 L 438.535156 352.84375 L 436.027344 352.84375 Z M 436.027344 337.503906 "/>
<path style=" stroke:none;fill-rule:nonzero;fill:rgb(13.729858%,12.159729%,12.548828%);fill-opacity:1;" d="M 452.078125 352.84375 L 449.566406 352.84375 L 449.566406 339.65625 L 445.054688 339.65625 L 445.054688 337.5 L 456.585938 337.5 L 456.585938 339.65625 L 452.078125 339.65625 Z M 452.078125 352.84375 "/>
<path style=" stroke:none;fill-rule:nonzero;fill:rgb(13.729858%,12.159729%,12.548828%);fill-opacity:1;" d="M 470.453125 346.417969 L 469.015625 342.246094 C 468.90625 341.964844 468.765625 341.523438 468.578125 340.921875 C 468.390625 340.320312 468.265625 339.882812 468.195312 339.601562 C 468.007812 340.460938 467.730469 341.402344 467.367188 342.421875 L 465.980469 346.417969 Z M 472.644531 352.84375 L 471.113281 348.582031 L 465.25 348.582031 L 463.746094 352.84375 L 461.101562 352.84375 L 466.84375 337.441406 L 469.570312 337.441406 L 475.308594 352.84375 Z M 472.644531 352.84375 "/>
<path style=" stroke:none;fill-rule:nonzero;fill:rgb(13.729858%,12.159729%,12.548828%);fill-opacity:1;" d="M 484.03125 344.636719 L 485.773438 344.636719 C 486.941406 344.636719 487.789062 344.421875 488.3125 343.988281 C 488.839844 343.554688 489.101562 342.910156 489.101562 342.054688 C 489.101562 341.1875 488.816406 340.566406 488.25 340.1875 C 487.683594 339.8125 486.832031 339.621094 485.6875 339.621094 L 484.03125 339.621094 Z M 484.03125 346.714844 L 484.03125 352.84375 L 481.523438 352.84375 L 481.523438 337.5 L 485.859375 337.5 C 487.839844 337.5 489.304688 337.875 490.253906 338.617188 C 491.207031 339.355469 491.679688 340.476562 491.679688 341.972656 C 491.679688 343.882812 490.6875 345.242188 488.703125 346.054688 L 493.035156 352.84375 L 490.179688 352.84375 L 486.511719 346.714844 Z M 484.03125 346.714844 "/>
<path style=" stroke:none;fill-rule:nonzero;fill:rgb(13.729858%,12.159729%,12.548828%);fill-opacity:1;" d="M 499.449219 337.503906 L 501.957031 337.503906 L 501.957031 352.84375 L 499.449219 352.84375 Z M 499.449219 337.503906 "/>
<path style=" stroke:none;fill-rule:nonzero;fill:rgb(13.729858%,12.159729%,12.548828%);fill-opacity:1;" d="M 512.109375 345.152344 C 512.109375 347.039062 512.492188 348.472656 513.253906 349.449219 C 514.011719 350.425781 515.144531 350.910156 516.640625 350.910156 C 518.128906 350.910156 519.253906 350.429688 520.011719 349.464844 C 520.773438 348.5 521.152344 347.058594 521.152344 345.152344 C 521.152344 343.269531 520.777344 341.84375 520.027344 340.871094 C 519.273438 339.898438 518.152344 339.414062 516.664062 339.414062 C 515.160156 339.414062 514.023438 339.898438 513.253906 340.871094 C 512.492188 341.84375 512.109375 343.269531 512.109375 345.152344 M 523.820312 345.152344 C 523.820312 347.648438 523.195312 349.589844 521.945312 350.972656 C 520.695312 352.359375 518.925781 353.050781 516.640625 353.050781 C 514.328125 353.050781 512.546875 352.363281 511.304688 350.988281 C 510.0625 349.617188 509.445312 347.664062 509.445312 345.132812 C 509.445312 342.597656 510.066406 340.652344 511.316406 339.296875 C 512.5625 337.9375 514.34375 337.261719 516.664062 337.261719 C 518.941406 337.261719 520.707031 337.949219 521.949219 339.328125 C 523.195312 340.707031 523.820312 342.648438 523.820312 345.152344 "/>
<path style=" stroke:none;fill-rule:nonzero;fill:rgb(13.729858%,12.159729%,12.548828%);fill-opacity:1;" d="M 540.148438 348.675781 C 540.148438 350.039062 539.65625 351.113281 538.667969 351.886719 C 537.679688 352.664062 536.320312 353.050781 534.585938 353.050781 C 532.851562 353.050781 531.433594 352.785156 530.328125 352.246094 L 530.328125 349.875 C 531.027344 350.203125 531.769531 350.460938 532.554688 350.652344 C 533.34375 350.835938 534.078125 350.933594 534.753906 350.933594 C 535.75 350.933594 536.480469 350.746094 536.953125 350.367188 C 537.425781 349.988281 537.660156 349.484375 537.660156 348.84375 C 537.660156 348.273438 537.445312 347.785156 537.007812 347.386719 C 536.578125 346.988281 535.679688 346.515625 534.328125 345.96875 C 532.925781 345.40625 531.9375 344.757812 531.367188 344.03125 C 530.792969 343.300781 530.503906 342.425781 530.503906 341.40625 C 530.503906 340.125 530.960938 339.117188 531.871094 338.382812 C 532.78125 337.652344 534 337.28125 535.53125 337.28125 C 537 337.28125 538.460938 337.601562 539.917969 338.246094 L 539.121094 340.292969 C 537.753906 339.71875 536.539062 339.433594 535.46875 339.433594 C 534.65625 339.433594 534.042969 339.609375 533.621094 339.964844 C 533.203125 340.316406 532.992188 340.78125 532.992188 341.367188 C 532.992188 341.761719 533.078125 342.101562 533.246094 342.386719 C 533.414062 342.667969 533.6875 342.941406 534.074219 343.191406 C 534.457031 343.441406 535.152344 343.773438 536.152344 344.183594 C 537.277344 344.65625 538.101562 345.09375 538.628906 345.496094 C 539.152344 345.90625 539.535156 346.363281 539.78125 346.871094 C 540.027344 347.382812 540.148438 347.984375 540.148438 348.675781 "/>
<path style=" stroke:none;fill-rule:nonzero;fill:rgb(13.729858%,12.159729%,12.548828%);fill-opacity:1;" d="M 561.414062 344.5 L 565.046875 337.5 L 567.773438 337.5 L 562.660156 346.894531 L 562.660156 352.84375 L 560.144531 352.84375 L 560.144531 346.980469 L 555.058594 337.5 L 557.785156 337.5 Z M 561.414062 344.5 "/>
<path style=" stroke:none;fill-rule:nonzero;fill:rgb(13.729858%,12.159729%,12.548828%);fill-opacity:1;" d="M 586.269531 344.992188 L 587.597656 344.992188 C 588.886719 344.992188 589.832031 344.769531 590.433594 344.324219 C 591.035156 343.875 591.335938 343.175781 591.335938 342.222656 C 591.335938 341.34375 591.066406 340.6875 590.527344 340.25 C 589.992188 339.816406 589.152344 339.601562 588.007812 339.601562 L 586.269531 339.601562 Z M 593.917969 342.140625 C 593.917969 343.742188 593.394531 344.972656 592.34375 345.820312 C 591.292969 346.675781 589.800781 347.101562 587.863281 347.101562 L 586.269531 347.101562 L 586.269531 352.84375 L 583.757812 352.84375 L 583.757812 337.5 L 588.175781 337.5 C 590.09375 337.5 591.53125 337.894531 592.488281 338.679688 C 593.441406 339.460938 593.917969 340.613281 593.917969 342.140625 "/>
<path style=" stroke:none;fill-rule:nonzero;fill:rgb(13.729858%,12.159729%,12.548828%);fill-opacity:1;" d="M 601.171875 337.503906 L 603.679688 337.503906 L 603.679688 352.84375 L 601.171875 352.84375 Z M 601.171875 337.503906 "/>
<path style=" stroke:none;fill-rule:nonzero;fill:rgb(13.729858%,12.159729%,12.548828%);fill-opacity:1;" d="M 624.699219 352.84375 L 621.625 352.84375 L 614.082031 340.621094 L 614 340.621094 L 614.050781 341.300781 C 614.144531 342.601562 614.195312 343.789062 614.195312 344.867188 L 614.195312 352.84375 L 611.921875 352.84375 L 611.921875 337.5 L 614.964844 337.5 L 622.484375 349.664062 L 622.550781 349.664062 C 622.535156 349.503906 622.507812 348.917969 622.464844 347.90625 C 622.425781 346.898438 622.402344 346.109375 622.402344 345.539062 L 622.402344 337.5 L 624.699219 337.5 Z M 624.699219 352.84375 "/>
<path style=" stroke:none;fill-rule:nonzero;fill:rgb(13.729858%,12.159729%,12.548828%);fill-opacity:1;" d="M 638.238281 352.84375 L 635.730469 352.84375 L 635.730469 339.65625 L 631.21875 339.65625 L 631.21875 337.5 L 642.753906 337.5 L 642.753906 339.65625 L 638.238281 339.65625 Z M 638.238281 352.84375 "/>
<path style=" stroke:none;fill-rule:nonzero;fill:rgb(13.729858%,12.159729%,12.548828%);fill-opacity:1;" d="M 661.316406 337.5 L 661.316406 347.429688 C 661.316406 348.5625 661.074219 349.554688 660.585938 350.402344 C 660.101562 351.253906 659.398438 351.90625 658.476562 352.363281 C 657.558594 352.824219 656.460938 353.050781 655.179688 353.050781 C 653.277344 353.050781 651.796875 352.546875 650.742188 351.539062 C 649.683594 350.535156 649.15625 349.148438 649.15625 347.386719 L 649.15625 337.5 L 651.671875 337.5 L 651.671875 347.207031 C 651.671875 348.476562 651.96875 349.40625 652.554688 350.007812 C 653.140625 350.609375 654.046875 350.910156 655.261719 350.910156 C 657.628906 350.910156 658.808594 349.667969 658.808594 347.1875 L 658.808594 337.5 Z M 661.316406 337.5 "/>
<path style=" stroke:none;fill-rule:nonzero;fill:rgb(13.729858%,12.159729%,12.548828%);fill-opacity:1;" d="M 671.9375 344.636719 L 673.679688 344.636719 C 674.847656 344.636719 675.695312 344.421875 676.21875 343.988281 C 676.746094 343.554688 677.003906 342.910156 677.003906 342.054688 C 677.003906 341.1875 676.722656 340.566406 676.160156 340.1875 C 675.589844 339.8125 674.738281 339.621094 673.597656 339.621094 L 671.9375 339.621094 Z M 671.9375 346.714844 L 671.9375 352.84375 L 669.429688 352.84375 L 669.429688 337.5 L 673.761719 337.5 C 675.746094 337.5 677.210938 337.875 678.160156 338.617188 C 679.113281 339.355469 679.585938 340.476562 679.585938 341.972656 C 679.585938 343.882812 678.59375 345.242188 676.609375 346.054688 L 680.941406 352.84375 L 678.085938 352.84375 L 674.414062 346.714844 Z M 671.9375 346.714844 "/>
<path style=" stroke:none;fill-rule:nonzero;fill:rgb(13.729858%,12.159729%,12.548828%);fill-opacity:1;" d="M 694.679688 346.417969 L 693.242188 342.246094 C 693.136719 341.964844 692.992188 341.523438 692.804688 340.921875 C 692.621094 340.320312 692.492188 339.882812 692.421875 339.601562 C 692.238281 340.460938 691.957031 341.402344 691.59375 342.421875 L 690.210938 346.417969 Z M 696.871094 352.84375 L 695.339844 348.582031 L 689.476562 348.582031 L 687.976562 352.84375 L 685.332031 352.84375 L 691.074219 337.441406 L 693.796875 337.441406 L 699.539062 352.84375 Z M 696.871094 352.84375 "/>
<path style=" stroke:none;fill-rule:nonzero;fill:rgb(13.729858%,12.159729%,12.548828%);fill-opacity:1;" d="M 714.597656 348.675781 C 714.597656 350.039062 714.109375 351.113281 713.117188 351.886719 C 712.132812 352.664062 710.773438 353.050781 709.035156 353.050781 C 707.300781 353.050781 705.882812 352.785156 704.78125 352.246094 L 704.78125 349.875 C 705.476562 350.203125 706.21875 350.460938 707.007812 350.652344 C 707.792969 350.835938 708.527344 350.933594 709.207031 350.933594 C 710.199219 350.933594 710.933594 350.746094 711.40625 350.367188 C 711.875 349.988281 712.113281 349.484375 712.113281 348.84375 C 712.113281 348.273438 711.894531 347.785156 711.460938 347.386719 C 711.027344 346.988281 710.132812 346.515625 708.777344 345.96875 C 707.375 345.40625 706.390625 344.757812 705.816406 344.03125 C 705.242188 343.300781 704.957031 342.425781 704.957031 341.40625 C 704.957031 340.125 705.410156 339.117188 706.320312 338.382812 C 707.230469 337.652344 708.449219 337.28125 709.984375 337.28125 C 711.453125 337.28125 712.914062 337.601562 714.367188 338.246094 L 713.570312 340.292969 C 712.207031 339.71875 710.992188 339.433594 709.917969 339.433594 C 709.109375 339.433594 708.492188 339.609375 708.074219 339.964844 C 707.652344 340.316406 707.445312 340.78125 707.445312 341.367188 C 707.445312 341.761719 707.527344 342.101562 707.695312 342.386719 C 707.863281 342.667969 708.140625 342.941406 708.523438 343.191406 C 708.910156 343.441406 709.601562 343.773438 710.601562 344.183594 C 711.730469 344.65625 712.554688 345.09375 713.078125 345.496094 C 713.601562 345.90625 713.988281 346.363281 714.234375 346.871094 C 714.476562 347.382812 714.597656 347.984375 714.597656 348.675781 "/>
<path style=" stroke:none;fill-rule:nonzero;fill:rgb(13.729858%,12.159729%,12.548828%);fill-opacity:1;" d="M 721.132812 351.53125 C 721.132812 351.019531 721.265625 350.628906 721.527344 350.355469 C 721.792969 350.085938 722.179688 349.945312 722.683594 349.945312 C 723.195312 349.945312 723.582031 350.089844 723.847656 350.371094 C 724.113281 350.652344 724.246094 351.042969 724.246094 351.53125 C 724.246094 352.027344 724.109375 352.425781 723.84375 352.710938 C 723.570312 353.003906 723.1875 353.148438 722.683594 353.148438 C 722.179688 353.148438 721.792969 353.007812 721.527344 352.71875 C 721.265625 352.429688 721.132812 352.035156 721.132812 351.53125 "/>
<path style=" stroke:none;fill-rule:nonzero;fill:rgb(88.690186%,17.826843%,25.071716%);fill-opacity:1;" d="M 277.480469 257 L 260.960938 243.292969 L 260.960938 220.484375 C 260.960938 219.699219 260.320312 219.0625 259.535156 219.0625 L 242.285156 219.0625 C 241.496094 219.0625 240.859375 219.699219 240.859375 220.484375 L 240.859375 226.617188 L 217.097656 206.90625 C 216.566406 206.464844 215.804688 206.464844 215.277344 206.90625 L 154.902344 257 C 154.441406 257.382812 154.269531 258.015625 154.472656 258.578125 C 154.679688 259.144531 155.210938 259.519531 155.8125 259.519531 L 163.496094 259.519531 L 163.496094 313.222656 L 166.34375 313.222656 L 166.34375 258.097656 C 166.34375 257.308594 165.707031 256.671875 164.917969 256.671875 L 159.757812 256.671875 L 216.1875 209.851562 L 241.375 230.746094 C 241.796875 231.097656 242.386719 231.171875 242.890625 230.9375 C 243.390625 230.703125 243.707031 230.203125 243.707031 229.648438 L 243.707031 221.910156 L 258.109375 221.910156 L 258.109375 243.960938 C 258.109375 244.382812 258.296875 244.785156 258.625 245.058594 L 272.628906 256.671875 L 267.46875 256.671875 C 266.683594 256.671875 266.046875 257.308594 266.046875 258.097656 L 266.046875 313.222656 L 268.894531 313.222656 L 268.894531 259.519531 L 276.574219 259.519531 C 277.175781 259.519531 277.710938 259.144531 277.914062 258.578125 C 278.117188 258.015625 277.945312 257.382812 277.480469 257 "/>
<path style=" stroke:none;fill-rule:nonzero;fill:rgb(88.690186%,17.826843%,25.071716%);fill-opacity:1;" d="M 255.261719 224.046875 L 246.558594 224.046875 C 246.160156 224.046875 245.84375 224.363281 245.84375 224.757812 L 245.84375 237.230469 L 216.644531 213.003906 C 216.378906 212.785156 215.996094 212.785156 215.730469 213.003906 L 167.195312 253.273438 C 166.96875 253.46875 166.878906 253.78125 166.984375 254.066406 C 167.085938 254.347656 167.351562 254.535156 167.652344 254.535156 L 168.480469 254.535156 L 168.480469 313.222656 L 169.902344 313.222656 L 169.902344 253.824219 C 169.902344 253.550781 169.75 253.3125 169.527344 253.191406 L 216.1875 214.476562 L 246.101562 239.292969 C 246.316406 239.472656 246.613281 239.507812 246.859375 239.390625 C 247.109375 239.273438 247.269531 239.023438 247.269531 238.742188 L 247.269531 225.46875 L 254.550781 225.46875 L 254.550781 245.96875 C 254.550781 246.179688 254.644531 246.378906 254.808594 246.515625 L 262.859375 253.195312 C 262.632812 253.316406 262.484375 253.550781 262.484375 253.824219 L 262.484375 313.222656 L 263.910156 313.222656 L 263.910156 254.535156 L 264.730469 254.535156 C 265.03125 254.535156 265.300781 254.347656 265.402344 254.066406 C 265.503906 253.78125 265.417969 253.46875 265.1875 253.273438 L 255.976562 245.632812 L 255.976562 224.757812 C 255.976562 224.363281 255.65625 224.046875 255.261719 224.046875 "/>
<path style=" stroke:none;fill-rule:nonzero;fill:rgb(88.690186%,17.826843%,25.071716%);fill-opacity:1;" d="M 168.476562 313.222656 L 263.210938 313.222656 L 263.210938 253.195312 L 264.558594 253.195312 L 255.207031 246.039062 L 255.207031 224.554688 L 246.851562 224.554688 L 246.851562 238.398438 L 216.195312 213.496094 L 167.378906 253.59375 L 169.175781 253.59375 Z M 168.476562 313.222656 "/>
<path style=" stroke:none;fill-rule:nonzero;fill:rgb(100%,100%,100%);fill-opacity:1;" d="M 204.828125 289.011719 L 204.828125 242.074219 L 223.074219 242.074219 L 223.074219 253.085938 L 227.40625 253.085938 C 230.613281 253.085938 233.199219 251.476562 233.199219 251.476562 L 233.199219 269.171875 C 233.199219 269.171875 231.125 267.152344 227.445312 267.152344 L 223.074219 267.152344 L 223.074219 284.992188 C 223.074219 288.289062 224.597656 289.496094 227.492188 289.496094 C 229.179688 289.496094 231.109375 289.011719 233.039062 288.128906 L 233.039062 302.191406 C 230.144531 303.722656 225.804688 304.683594 221.386719 304.683594 C 210.613281 304.683594 204.828125 299.703125 204.828125 289.011719 "/>
<path style=" stroke:none;fill-rule:nonzero;fill:rgb(100%,100%,100%);fill-opacity:1;" d="M 234.570312 269.117188 L 234.519531 251.425781 L 237.296875 251.410156 C 238.589844 251.410156 239.652344 252.480469 239.65625 253.769531 L 239.632812 266.75 C 239.632812 268.046875 238.5625 269.109375 237.257812 269.125 Z M 234.570312 269.117188 "/>
<path style=" stroke:none;fill-rule:nonzero;fill:rgb(100%,100%,100%);fill-opacity:1;" d="M 187.636719 262.160156 C 187.132812 262.683594 186.28125 263.84375 185.519531 264.917969 C 184.132812 266.773438 186.375 269.308594 188.167969 267.566406 C 189.003906 266.726562 188.941406 266.710938 189.402344 266.347656 C 193.261719 263.308594 199.628906 263.601562 203.488281 266.984375 L 203.488281 253.0625 C 195.898438 254.078125 192.40625 257.246094 187.636719 262.160156 "/>
</g>
</svg>
