<svg width="841.89" height="595.28" xmlns="http://www.w3.org/2000/svg">

 <g>
  <title>background</title>
  <rect fill="none" id="canvas_background" height="602" width="802" y="-1" x="-1"/>
 </g>
 <g>
  <title>Layer 1</title>
  <g id="surface1">
   <path id="svg_53" fill-rule="nonzero" fill="rgb(88.690186%,17.826843%,25.071716%)" d="m455.48047,272l-16.51953,-13.70703l0,-22.80859c0,-0.78516 -0.64063,-1.42188 -1.42578,-1.42188l-17.25,0c-0.78907,0 -1.42578,0.63672 -1.42578,1.42188l0,6.13281l-23.76172,-19.71094c-0.53125,-0.44141 -1.29297,-0.44141 -1.82032,0l-60.375,50.09375c-0.46093,0.38281 -0.63281,1.01563 -0.42968,1.57813c0.20703,0.5664 0.73828,0.9414 1.33984,0.9414l7.68359,0l0,53.70313l2.84766,0l0,-55.125c0,-0.78907 -0.63672,-1.42578 -1.42578,-1.42578l-5.16016,0l56.42969,-46.82032l25.1875,20.89453c0.42188,0.35157 1.01172,0.42579 1.51563,0.19141c0.5,-0.23437 0.8164,-0.73437 0.8164,-1.28906l0,-7.73828l14.40235,0l0,22.05078c0,0.42187 0.1875,0.82422 0.51562,1.09765l14.00391,11.61329l-5.16016,0c-0.78516,0 -1.42187,0.63671 -1.42187,1.42578l0,55.125l2.84765,0l0,-53.70313l7.67969,0c0.60156,0 1.13672,-0.375 1.33984,-0.9414c0.20313,-0.5625 0.03125,-1.19532 -0.43359,-1.57813"/>
   <path id="svg_54" fill-rule="nonzero" fill="rgb(88.690186%,17.826843%,25.071716%)" d="m433.26172,239.04688l-8.70313,0c-0.39843,0 -0.71484,0.3164 -0.71484,0.71093l0,12.47266l-29.19922,-24.22656c-0.26562,-0.21875 -0.64844,-0.21875 -0.91406,0l-48.53516,40.26953c-0.22656,0.19531 -0.3164,0.50781 -0.21093,0.79297c0.10156,0.28125 0.36718,0.46875 0.66796,0.46875l0.82813,0l0,58.6875l1.42187,0l0,-59.39844c0,-0.27344 -0.15234,-0.51172 -0.375,-0.63281l46.66016,-38.71485l29.91406,24.81641c0.21485,0.17969 0.51172,0.21484 0.75782,0.09766c0.25,-0.11719 0.41015,-0.36719 0.41015,-0.64844l0,-13.27344l7.28125,0l0,20.5c0,0.21094 0.09375,0.41016 0.25781,0.54688l8.05079,6.67968c-0.22657,0.1211 -0.375,0.35547 -0.375,0.62891l0,59.39844l1.42578,0l0,-58.6875l0.82031,0c0.30078,0 0.57031,-0.1875 0.67187,-0.46875c0.10157,-0.28516 0.01563,-0.59766 -0.21484,-0.79297l-9.21094,-7.64063l0,-20.875c0,-0.39453 -0.32031,-0.71093 -0.71484,-0.71093"/>
   <path id="svg_55" fill-rule="nonzero" fill="rgb(88.690186%,17.826843%,25.071716%)" d="m346.47656,328.22266l94.73438,0l0,-60.02735l1.34765,0l-9.35156,-7.15625l0,-21.48437l-8.35547,0l0,13.84375l-30.65625,-24.90235l-48.8164,40.09766l1.79687,0l-0.69922,59.62891z"/>
   <path id="svg_56" fill-rule="nonzero" fill="rgb(100%,100%,100%)" d="m382.82813,304.01172l0,-46.9375l18.24609,0l0,11.01172l4.33203,0c3.20703,0 5.79297,-1.60938 5.79297,-1.60938l0,17.69532c0,0 -2.07422,-2.01954 -5.75391,-2.01954l-4.37109,0l0,17.83985c0,3.29687 1.52344,4.5039 4.41797,4.5039c1.6875,0 3.61719,-0.48437 5.54687,-1.36718l0,14.0625c-2.89453,1.53125 -7.23437,2.49218 -11.65234,2.49218c-10.77344,0 -16.55859,-4.98046 -16.55859,-15.67187"/>
   <path id="svg_57" fill-rule="nonzero" fill="rgb(100%,100%,100%)" d="m412.57031,284.11719l-0.05078,-17.69141l2.77735,-0.01562c1.29296,0 2.35546,1.07031 2.35937,2.35937l-0.02344,12.98047c0,1.29688 -1.07031,2.35938 -2.375,2.375l-2.6875,-0.00781zm0,0"/>
   <path id="svg_58" fill-rule="nonzero" fill="rgb(100%,100%,100%)" d="m365.63672,277.16016c-0.50391,0.52343 -1.35547,1.68359 -2.11719,2.75781c-1.38672,1.85547 0.85547,4.39062 2.64844,2.64844c0.83594,-0.83985 0.77344,-0.85547 1.23437,-1.21875c3.85938,-3.03907 10.22657,-2.7461 14.08594,0.63672l0,-13.92188c-7.58984,1.01563 -11.08203,4.18359 -15.85156,9.09766"/>
  </g>
 </g>
</svg>